<?xml version="1.0" encoding="utf-8"?>
<!-- Generator: Adobe Illustrator 22.0.1, SVG Export Plug-In . SVG Version: 6.00 Build 0)  -->
<svg version="1.1" xmlns="http://www.w3.org/2000/svg" xmlns:xlink="http://www.w3.org/1999/xlink" x="0px" y="0px" width="19px"
	 height="21.5px" viewBox="0 0 19 21.5" enable-background="new 0 0 19 21.5" xml:space="preserve">
<g id="Layer_1" display="none">
	<rect x="0" y="0.1" display="inline" width="18.9" height="21.5"/>
</g>
<g id="cloud">
	<path fill="#FFFFFF" d="M13.3,2.1c-0.2,0.9-0.2,2-0.7,3.1c-0.5,1.1-1.2,2.2-1.8,3.2c-0.5,0.8-0.6,1.6-0.7,2.5c0,0.3,0,0.5,0,0.8
		c0,0.3-0.1,0.7-0.5,0.7c-0.3,0-0.7-0.1-0.9-0.4C7.9,11.1,7.6,10,8,8.7C8.2,8,8.3,7.2,8.6,6.4c0.2-0.5,0-0.9-0.4-1.3
		c-0.3-0.3-0.3-0.7-0.1-1c0.2-0.3,0.4-0.6,0.7-0.9c0.9-0.9,2.1-1.5,3.2-2.1C12.6,0.8,13.3,1.2,13.3,2.1z"/>
	<path fill="#FFFFFF" d="M8.6,18.3c0.2-1.5-0.4-2.6-1.3-3.6c-0.6-0.7-1.1-1.5-1.6-2.3c-0.1-0.1-0.1-0.2-0.1-0.3
		c0-0.1,0.1-0.2,0.1-0.3c0.1,0,0.3,0.1,0.3,0.1c0.4,0.4,0.7,0.9,1.1,1.3c0.9,0.9,1.7,1.8,2.7,2.6c0.9,0.8,0.9,1.7,0.6,2.7
		c-0.2,0.6-0.5,1.1-0.8,1.6c-0.1,0.1-0.2,0.2-0.4,0.3C9,20.3,8.8,20.2,8.8,20C8.7,19.4,8.6,18.9,8.6,18.3z"/>
</g>
<g id="cloud_copy" display="none">
	<g display="inline">
		<image overflow="visible" width="79" height="84" xlink:href="E8B545C0D531229.png"  transform="matrix(1 0 0 1 -29 -34.5)">
		</image>
	</g>
	<g display="inline">
		<image overflow="visible" width="78" height="81" xlink:href="E8B545C0D53122B.png"  transform="matrix(1 0 0 1 -31 -24.5)">
		</image>
	</g>
</g>
<g id="blur" display="none">
	<g display="inline">
		<g>
			
				<image overflow="visible" width="77" height="85" xlink:href="E8B545C0D53122E.png"  transform="matrix(1 0 0 1 -29.9879 -31.5121)">
			</image>
		</g>
		<g>
			
				<image overflow="visible" width="76" height="75" xlink:href="E8B545C0D53122F.png"  transform="matrix(1 0 0 1 -26.9879 -26.5121)">
			</image>
		</g>
		<g>
			
				<image overflow="visible" width="74" height="75" xlink:href="E8B545C0D53122A.png"  transform="matrix(1 0 0 1 -31.9879 -27.5121)">
			</image>
		</g>
	</g>
</g>
</svg>
