<?xml version="1.0" encoding="utf-8"?>
<!-- Generator: Adobe Illustrator 22.0.1, SVG Export Plug-In . SVG Version: 6.00 Build 0)  -->
<svg version="1.1" id="Layer_1" xmlns="http://www.w3.org/2000/svg" xmlns:xlink="http://www.w3.org/1999/xlink" x="0px" y="0px"
	 width="40px" height="40px" viewBox="0 0 40 40" enable-background="new 0 0 40 40" xml:space="preserve">
<path fill="#3F3B3C" d="M129.4,58.7l0,0.2c0,0,0,0.1,0.1,0.1c0,0.1,0,0.1,0.1,0.2l0.2,0c0.1-0.1,0.1-0.2,0.1-0.3
	c0-0.1,0-0.2-0.1-0.2C129.7,58.6,129.5,58.5,129.4,58.7z"/>
<path fill="#3F3B3C" d="M116.4,59.2l0.1,0.1c0.1,0,0.3,0.1,0.4,0c0.1,0,0.1-0.1,0.1-0.2l-0.1-0.1c0,0,0,0,0,0l-0.2-0.1
	C116.4,58.9,116.4,59.2,116.4,59.2z"/>
<path fill="#3F3B3C" d="M130.7,59.3C130.7,59.3,130.7,59.3,130.7,59.3l0.1,0.2c0.1,0,0.2,0,0.2-0.1c0,0,0.1-0.1,0.1-0.3l0,0L131,59
	c0,0-0.1,0-0.1,0l-0.2,0.2C130.7,59.2,130.7,59.3,130.7,59.3z"/>
<path fill="#3F3B3C" d="M113,59.6C113,59.6,113,59.6,113,59.6l0,0.2c0.1,0,0.2,0,0.3,0c0.1,0,0.1-0.1,0.2-0.2l0,0l-0.1-0.2
	c0,0-0.1,0-0.1-0.1l-0.3,0.1C113,59.5,113,59.5,113,59.6z"/>
<path fill="#3F3B3C" d="M105.8,60.6c0-0.1,0.1-0.1,0.1-0.2l-0.2,0c0,0,0,0,0,0c-0.1,0-0.2,0.1-0.2,0.1c0,0,0,0,0,0.1l-0.2,0
	c0,0.1,0.1,0.2,0.2,0.2C105.6,60.7,105.7,60.6,105.8,60.6z"/>
<path fill="#3F3B3C" d="M83.2,60.5c0-0.1,0-0.1,0-0.2l-0.2,0c0,0,0,0,0,0c-0.1,0-0.2,0.1-0.2,0.1c0,0,0,0,0,0.1l-0.2,0
	c0,0.1,0.1,0.2,0.3,0.1C83.1,60.7,83.2,60.6,83.2,60.5z"/>
<path fill="#3F3B3C" d="M83,59.2l0.1,0.1c0.1,0,0.3-0.1,0.4-0.2c0-0.1,0-0.2,0-0.2l-0.2,0c0,0,0,0,0.1,0l-0.2,0
	C82.9,59,83,59.2,83,59.2z"/>
<path fill="#3F3B3C" d="M38.5,17.8l-0.2,0c-0.1,0.1-0.1,0.1-0.2,0.1C38,18,38,18,37.9,18.1l0.2,0.2c0,0,0.1,0,0.1,0
	c0.1,0,0.2,0,0.4-0.1l0-0.2L38.5,17.8z"/>
<path fill="#3F3B3C" d="M39.3,28.3L39,28.2l-0.3,0.2l0,0.3c0.1,0.1,0.2,0.1,0.3,0.2c0.1,0.1,0.2,0.1,0.3,0.2l0.2-0.1
	c0.1-0.2,0-0.3-0.1-0.4C39.3,28.4,39.3,28.3,39.3,28.3z"/>
<path fill="#3F3B3C" d="M34.5,15.6l-0.2,0c-0.1,0.1-0.1,0.1-0.2,0.1c-0.1,0-0.1,0.1-0.2,0.2l0.2,0.2c0,0,0.1,0,0.1,0
	c0.1,0,0.2,0,0.4-0.1l0-0.2L34.5,15.6z"/>
<path fill="#3F3B3C" d="M38.8,7.2C38.8,7.2,38.8,7.2,38.8,7.2l-0.2-0.1c-0.1,0-0.2,0.1-0.2,0.2c0,0.1,0,0.1,0,0.3l0,0l0.2,0
	c0,0,0.1,0,0.1,0L39,7.3C38.9,7.2,38.9,7.2,38.8,7.2z"/>
<path fill="#3F3B3C" d="M34.1,26.1L33.9,26l-0.3,0.2l0,0.3c0.1,0.1,0.2,0.1,0.2,0.2c0.1,0.1,0.2,0.1,0.3,0.2l0.2-0.1
	c0.1-0.2,0-0.3-0.1-0.4C34.2,26.3,34.1,26.2,34.1,26.1z"/>
<path fill="#3F3B3C" d="M24.8,30.8l-0.2,0.1c0,0.1,0,0.1-0.1,0.2c0,0.1-0.1,0.2,0,0.3l0.3,0c0,0,0,0,0.1-0.1
	c0.1-0.1,0.2-0.1,0.2-0.3l-0.1-0.2L24.8,30.8z"/>
<path fill="#3F3B3C" d="M30.5,9.3l-0.1,0c-0.1,0-0.2,0.2-0.3,0.4c0,0.1,0,0.2,0.1,0.2l0.2,0c0,0,0,0,0,0l0.2-0.1
	C30.8,9.5,30.6,9.3,30.5,9.3z"/>
<path fill="#3F3B3C" d="M38.8,15.4L38.8,15.4c-0.1-0.2-0.2-0.3-0.3-0.3c-0.2-0.1-0.4,0-0.5,0.1L38,15.3l0.1,0.3l0.1,0.1l0.1,0
	c0.3,0.1,0.5,0,0.5-0.1l0-0.1L38.8,15.4z"/>
<path fill="#3F3B3C" d="M31.8,19.7l-0.1-0.2c-0.1,0-0.2,0-0.2,0c-0.1,0-0.1,0.1-0.1,0.2l0.1,0.2c0,0,0,0,0,0
	C31.5,19.8,31.7,19.9,31.8,19.7L31.8,19.7C31.8,19.6,31.8,19.6,31.8,19.7z"/>
<path fill="#3F3B3C" d="M22.9,21.5C22.9,21.5,22.9,21.5,22.9,21.5l-0.2,0c-0.1,0.1-0.1,0.2,0,0.3c0,0.1,0.1,0.1,0.2,0.2l0,0l0.2-0.1
	c0,0,0-0.1,0.1-0.1l0-0.3C23,21.5,23,21.5,22.9,21.5z"/>
<path fill="#3F3B3C" d="M37.3,8.6c-0.1-0.1-0.3,0-0.4,0.1L37,9c0,0,0,0,0,0c0,0,0.1,0.1,0.2,0.1c0,0,0.1,0,0.1,0l0.1-0.1
	c0.1-0.1,0.1-0.2,0-0.3C37.4,8.7,37.4,8.7,37.3,8.6z"/>
<path fill="#3F3B3C" d="M40.3,30.5L40.3,30.5c0-0.1,0-0.2-0.1-0.3l0-0.1l-0.1-0.2l0-0.1c0,0-0.1-0.1-0.2-0.2l-0.3,0l-0.2,0.1l-0.1,0
	C39.1,29.7,39,29.8,39,30l0,0.2l0.1,0.2l0.1,0.1l0,0.2l0.1,0.2l0.2,0.2c0.4,0.1,0.6,0,0.8-0.2L40.3,30.5L40.3,30.5z"/>
<path fill="#3F3B3C" d="M38.5,22.4c-0.1-0.1-0.3,0-0.4,0c-0.1,0.1-0.2,0.1-0.2,0.3l0,0.1l0,0.1l0,0l0,0.1l0.1,0.1l0.1,0l0.1,0l0.1,0
	l0.1,0c0.1-0.1,0.2-0.2,0.2-0.4C38.7,22.6,38.6,22.5,38.5,22.4z"/>
<path fill="#3F3B3C" d="M29.5,24.4C29.4,24.4,29.4,24.4,29.5,24.4c-0.1,0-0.2-0.1-0.3,0c-0.1,0-0.1,0.1-0.1,0.2l0,0.1
	c0,0.1,0.1,0.1,0.1,0.2c0.2,0.1,0.3-0.1,0.4-0.1L29.5,24.4C29.5,24.4,29.5,24.4,29.5,24.4z"/>
<path fill="#3F3B3C" d="M34,30.7c0,0-0.1-0.1-0.1-0.2l-0.1,0l-0.2,0.1c0,0-0.1,0.1-0.2,0.1l0,0.1l0.1,0.2c0,0,0.1,0.1,0.1,0.2l0.1,0
	l0.3-0.1c0,0,0.1-0.1,0.2-0.1l0-0.1L34,30.7z"/>
<path fill="#3F3B3C" d="M33.7,11.1c0.1,0,0.1-0.1,0.1-0.1c0-0.1,0-0.2,0-0.2l-0.1,0.1c0,0,0,0,0,0l0.1-0.1c-0.1-0.1-0.2-0.2-0.3-0.2
	l0.1,0.1c0,0,0,0,0,0c0,0.1,0,0.2,0.1,0.3c0,0,0,0,0.1,0L33.7,11.1z"/>
<path fill="#3F3B3C" d="M31.4,28.5l-0.1-0.2c0,0,0,0,0,0c0-0.1,0-0.1,0-0.2c0,0,0,0-0.1,0L31.2,28C31,28,31,28.2,31.1,28.3l0.2-0.1
	c0,0,0,0,0,0l-0.2,0.1c0,0.1,0.1,0.1,0.1,0.1C31.2,28.5,31.3,28.5,31.4,28.5z"/>
<path fill="#3F3B3C" d="M28.7,20.8c0.1,0,0.2,0.1,0.3,0l0.1-0.2c-0.1-0.1-0.3-0.3-0.5-0.2c-0.1,0-0.1,0.1-0.1,0.2L28.7,20.8
	C28.6,20.7,28.7,20.8,28.7,20.8z"/>
<path fill="#3F3B3C" d="M35.2,33.6L35.2,33.6c0,0.2,0,0.4,0.1,0.5c0.1,0.1,0.3,0.2,0.5,0.1l0.2-0.1l0.1-0.1l0.1-0.1l0-0.1
	c0.1-0.1,0.2-0.4,0-0.7c-0.1-0.2-0.2-0.3-0.4-0.3L35.5,33l-0.1,0.2l0,0C35.2,33.3,35.2,33.5,35.2,33.6z"/>
<path fill="#3F3B3C" d="M37.3,20.4L37.3,20.4c0.1,0,0.3,0.1,0.4,0c0.1,0,0.3-0.2,0.2-0.5l-0.1-0.1l-0.3-0.1c0,0-0.2,0-0.3,0l-0.1,0
	l-0.1,0.1l0,0.2l0,0.1l0.1,0.1l0,0.1L37.3,20.4z"/>
<path fill="#3F3B3C" d="M34,23c0,0,0.1,0,0.2,0l0.1-0.1l0.1-0.3c0-0.1,0-0.2-0.1-0.4l-0.1-0.1l-0.2,0l-0.1,0l-0.2,0.1l-0.1,0.1
	l-0.1,0.2l0,0.1l0.1,0.1l0.1,0.1L34,23z"/>
<path fill="#3F3B3C" d="M24.2,27.6C24.2,27.6,24.2,27.7,24.2,27.6c0.1,0.1,0.2,0.2,0.3,0.2l0.1-0.2c0,0,0-0.1,0-0.1l-0.2-0.2
	c0,0,0,0-0.1,0c-0.1,0-0.2,0-0.2,0c0,0-0.1,0.1-0.1,0.2L24.2,27.6C24.3,27.6,24.2,27.6,24.2,27.6z"/>
<path fill="#3F3B3C" d="M26.9,34.5c-0.1-0.1-0.2-0.2-0.4-0.1l-0.1,0.2c0,0,0,0,0,0c0,0.1,0,0.2,0.1,0.3l0.2,0.1
	C26.9,34.8,27,34.6,26.9,34.5z"/>
<path fill="#3F3B3C" d="M30.8,33.8l0.1-0.1l0.1-0.2l0-0.2c0-0.1-0.1-0.3-0.3-0.4c-0.1,0-0.2,0-0.4,0c0,0,0,0-0.1,0l-0.1,0.1l0,0.2
	l0,0.1C30.2,33.6,30.4,33.9,30.8,33.8z"/>
<path fill="#3F3B3C" d="M39.3,17.1c0-0.1,0-0.1,0-0.2l-0.2,0c0,0-0.1-0.1-0.3,0c0,0,0,0-0.1,0L38.7,17c0,0.1,0.1,0.2,0.2,0.2
	C39,17.3,39.3,17.2,39.3,17.1z"/>
<path fill="#3F3B3C" d="M38.3,29.2l0.2,0l0.2-0.1c0.3-0.2,0.3-0.5,0.4-0.7l0-0.2l-0.1-0.2L38.8,28c-0.2-0.1-0.5-0.2-0.7-0.1
	c-0.2,0.1-0.4,0.4-0.4,0.7c0,0.3,0.2,0.5,0.4,0.6L38.3,29.2z"/>
<path fill="#3F3B3C" d="M16.9,36.5c0.1,0,0.1,0,0.2,0L17,36.4c0,0,0,0,0,0c0-0.1-0.1-0.1-0.1-0.1c0,0,0,0-0.1,0l-0.1-0.1
	c-0.1,0.1-0.1,0.2-0.1,0.3C16.7,36.4,16.8,36.5,16.9,36.5z"/>
<path fill="#3F3B3C" d="M10.9,30.6L10.9,30.6c-0.1,0.2-0.1,0.4,0,0.5c0.1,0.1,0.2,0.1,0.2,0l0.1-0.2c0,0,0,0,0,0.1l0.1-0.2
	C11.2,30.5,10.9,30.6,10.9,30.6z"/>
<path fill="#3F3B3C" d="M20.8,28.1L20.8,28.1c-0.2-0.1-0.3-0.1-0.4,0c-0.2,0.1-0.3,0.3-0.3,0.4l0.1,0.2l0.2,0.1l0.2,0l0.1,0
	c0.3-0.2,0.3-0.4,0.3-0.5l0-0.1L20.8,28.1z"/>
<path fill="#3F3B3C" d="M19.7,36.2l-0.2-0.1c0,0-0.1,0.1-0.1,0.2c0,0.1,0,0.1,0.1,0.2l0.2,0c0,0,0,0,0,0
	C19.6,36.5,19.8,36.4,19.7,36.2L19.7,36.2C19.6,36.2,19.7,36.2,19.7,36.2z"/>
<path fill="#3F3B3C" d="M14.9,18.6l-0.2-0.1c0,0-0.1,0-0.1,0c-0.1,0-0.1,0-0.2,0l-0.1,0.2c0,0.1,0.1,0.2,0.2,0.2c0.1,0,0.2,0,0.2,0
	C14.8,18.9,14.9,18.9,14.9,18.6z"/>
<path fill="#3F3B3C" d="M14.6,25c-0.1,0.1-0.2,0.2-0.1,0.4l0.2,0.1c0,0,0,0,0,0c0,0,0.1,0,0.2,0c0,0,0,0,0.1-0.1l0-0.2
	c0-0.1-0.1-0.2-0.2-0.2C14.8,24.9,14.7,24.9,14.6,25z"/>
<path fill="#3F3B3C" d="M33.6,15.9c0,0-0.1,0-0.2,0L33.3,16l-0.1,0.2c0,0,0,0.1,0,0.2l0.1,0.1l0.3,0.1c0,0,0.1,0,0.2,0l0.1-0.1
	l0.1-0.2c0,0,0-0.1,0-0.2L33.9,16L33.6,15.9z"/>
<path fill="#3F3B3C" d="M26.1,32.8c-0.1,0.1-0.2,0.2-0.2,0.3c0,0.1,0,0.2,0.1,0.3l0.1,0.1l0.1,0l0,0l0.1,0.1l0.2,0l0.1-0.1l0.1-0.1
	l0.1-0.1l0-0.1c0-0.2-0.1-0.3-0.2-0.4C26.4,32.7,26.2,32.7,26.1,32.8z"/>
<path fill="#3F3B3C" d="M27.4,25.5c-0.1,0.1-0.2,0.1-0.3,0.2l-0.1,0.2l0,0.2l0,0.2l0.2,0.3l0.2,0.2l0.2,0.1l0.3,0l0.3-0.2l0.2-0.2
	l0.1-0.2l0-0.3C28.2,25.5,27.8,25.3,27.4,25.5z"/>
<path fill="#3F3B3C" d="M32.2,33.4l-0.2,0l-0.3,0.1c-0.5,0.2-0.4,0.7-0.4,0.8l0,0.1l0.1,0.2l0.1,0.1l0.2,0.1c0.2,0,0.4,0,0.5-0.1
	c0.2-0.1,0.3-0.3,0.4-0.5c0-0.2,0-0.5-0.2-0.7L32.2,33.4z"/>
<path fill="#3F3B3C" d="M26.5,12.1l0.1-0.2L26.2,12l0.2,0.1C26.4,12.1,26.5,12.1,26.5,12.1z"/>
<path fill="#3F3B3C" d="M37.2,29.4l0.1-0.2l0-0.3l-0.1-0.1L37,28.7l-0.2-0.1c0,0-0.2,0-0.3,0l-0.2,0.2L36.1,29l0,0.1
	c0,0.1,0,0.3,0.1,0.5l0.2,0.1l0.2,0l0.2,0l0.2-0.1L37.2,29.4z"/>
<path fill="#3F3B3C" d="M39.8,32.3l-0.1-0.1L39.5,32c-0.2-0.1-0.3,0-0.5,0.1c-0.2,0.1-0.3,0.3-0.4,0.5l0,0.2l0.1,0.2l0.2,0.2
	c0.2,0.1,0.4,0.1,0.6,0c0.1-0.1,0.4-0.3,0.3-0.7L39.8,32.3z"/>
<path fill="#3F3B3C" d="M27.5,18.5L27.5,18.5l-0.2-0.1l-0.1,0c0,0-0.1,0-0.1,0c-0.1,0.1-0.2,0.2-0.2,0.3c-0.1,0.2,0.1,0.4,0.1,0.5
	l0.1,0.1l0.2,0.1l0.1,0l0,0c0.2-0.1,0.3-0.2,0.3-0.3l0-0.1l0-0.1l0-0.1C27.6,18.6,27.5,18.6,27.5,18.5L27.5,18.5z"/>
<path fill="#3F3B3C" d="M35.7,26.3c0.1,0,0.2,0.1,0.4,0l0.2-0.2l0.1-0.2l0-0.3l-0.1-0.2l-0.2-0.2l-0.2,0l-0.3,0.1
	c-0.4,0.3-0.3,0.6-0.3,0.7l0.2,0.2L35.7,26.3z"/>
<path fill="#3F3B3C" d="M34.5,7.8L34.5,7.8c0.1-0.2,0.1-0.4,0-0.5c-0.1-0.1-0.2-0.1-0.3,0l-0.1,0.1c0,0.1,0,0.3,0.1,0.4
	C34.3,7.8,34.4,7.8,34.5,7.8z"/>
<path fill="#3F3B3C" d="M19,22.2l-0.1,0.1c0,0.1,0,0.3,0.1,0.4l0.2,0l0,0c0.2-0.1,0.2-0.3,0.1-0.4C19.3,22.2,19.1,22.1,19,22.2z"/>
<path fill="#3F3B3C" d="M5.9,36.4l-0.1,0.1c0,0.1,0,0.3,0.2,0.4c0.1,0,0.2,0.1,0.2,0l0.1-0.2c0,0,0,0,0,0.1l0.1-0.2
	C6.2,36.3,6,36.4,5.9,36.4z"/>
<path fill="#3F3B3C" d="M15.4,30.5L15.4,30.5c-0.2,0-0.3,0-0.4,0.1c-0.1,0.1-0.2,0.3-0.2,0.5l0.1,0.1l0.2,0.1l0.2,0l0.1,0
	c0.3-0.2,0.2-0.4,0.2-0.5l-0.1-0.1L15.4,30.5z"/>
<path fill="#3F3B3C" d="M8.2,22L8,21.9c0,0-0.1,0-0.1,0c-0.1,0-0.1,0-0.2,0l-0.1,0.2c0.1,0.1,0.2,0.2,0.3,0.2c0.1,0,0.2,0,0.2,0
	C8.2,22.3,8.3,22.2,8.2,22z"/>
<path fill="#3F3B3C" d="M8.9,28.3c-0.1,0.1-0.1,0.2-0.1,0.4L9,28.7c0,0,0,0,0,0c0,0,0.1,0,0.2-0.1c0,0,0,0,0.1-0.1l0-0.2
	c0-0.1-0.1-0.2-0.2-0.2C9,28.2,8.9,28.2,8.9,28.3z"/>
<path fill="#3F3B3C" d="M39.5,23.6L39.5,23.6c0-0.2-0.1-0.4-0.2-0.5c-0.2-0.1-0.4-0.1-0.6,0l-0.2,0.2l-0.1,0.2l0,0.1l0,0.1
	c0,0.1-0.1,0.4,0.1,0.7c0.1,0.1,0.3,0.2,0.5,0.2l0.3-0.2l0.1-0.2l0,0C39.5,24,39.5,23.8,39.5,23.6z"/>
<path fill="#3F3B3C" d="M32.5,11.9l-0.1,0c-0.2,0.2-0.3,0.4-0.2,0.6l0,0.1l0.1,0.1l0.1,0c0.1,0,0.3,0,0.4-0.1
	c0.1-0.1,0.2-0.2,0.2-0.3c0-0.1,0-0.3-0.2-0.4l-0.1,0L32.5,11.9z"/>
<path fill="#3F3B3C" d="M26.4,16.6c-0.1,0-0.1,0-0.2,0l-0.1,0.1L26,17c0,0,0,0.1,0,0.2l0.1,0.1l0.3,0.1c0,0,0.1,0,0.2,0l0.1-0.1
	l0.1-0.3c0,0,0-0.1,0-0.2l-0.1-0.1L26.4,16.6z"/>
<path fill="#3F3B3C" d="M37.3,6.9c-0.1,0.1-0.2,0.3-0.1,0.4l0.2,0.1c0,0,0.1,0,0.2,0l0.1-0.2c0,0,0-0.1,0-0.2l-0.1-0.1
	C37.5,6.8,37.4,6.9,37.3,6.9z"/>
<path fill="#3F3B3C" d="M21.3,34.4c-0.1,0.1-0.2,0.2-0.2,0.3c0,0.1,0,0.2,0.1,0.3l0.1,0l0.1,0l0,0l0.1,0l0.1,0l0.1-0.1l0.1-0.1
	l0.1-0.1l0-0.1c0-0.2-0.1-0.3-0.2-0.3C21.6,34.3,21.4,34.3,21.3,34.4z"/>
<path fill="#3F3B3C" d="M21.6,27c-0.1,0.1-0.2,0.2-0.2,0.3l0,0.2l0,0.2l0.1,0.2l0.2,0.3l0.2,0.1l0.2,0l0.3-0.1l0.3-0.2l0.1-0.2
	l0-0.2l-0.1-0.3C22.4,26.9,21.9,26.8,21.6,27z"/>
<path fill="#3F3B3C" d="M27.4,34.1l-0.2,0L27,34.2c-0.4,0.3-0.3,0.7-0.3,0.9l0,0.1l0.1,0.2l0.1,0.1l0.2,0.1c0.2,0,0.3,0,0.5-0.1
	c0.2-0.1,0.3-0.3,0.3-0.6c0-0.2-0.1-0.5-0.3-0.7L27.4,34.1z"/>
<path fill="#3F3B3C" d="M18.8,13.9l0.1-0.2l-0.4,0.2l0.2,0.1C18.7,13.9,18.8,13.9,18.8,13.9z"/>
<path fill="#3F3B3C" d="M31.8,29.5l0-0.2L31.8,29l-0.1-0.1l-0.2-0.1l-0.2,0c0,0-0.2,0-0.3,0.1L30.8,29l-0.1,0.2l0,0.1
	c0,0.1,0,0.3,0.2,0.5l0.2,0.1l0.2,0l0.2-0.1l0.2-0.1L31.8,29.5z"/>
<path fill="#3F3B3C" d="M34.8,32l-0.1-0.1l-0.2-0.1c-0.2,0-0.3,0-0.5,0.1c-0.2,0.1-0.3,0.4-0.3,0.6l0.1,0.2l0.1,0.2l0.2,0.1
	c0.2,0,0.4,0,0.6-0.1c0.1-0.1,0.3-0.3,0.2-0.7L34.8,32z"/>
<path fill="#3F3B3C" d="M37.3,28.5l-0.1,0L37,28.7c-0.2,0.2-0.2,0.5-0.2,0.7l0.1,0.2l0.1,0.1l0.1,0.1c0.2,0.1,0.5,0.1,0.7-0.1
	c0.2-0.2,0.3-0.5,0.3-0.7c-0.1-0.3-0.3-0.5-0.5-0.5L37.3,28.5z"/>
<path fill="#3F3B3C" d="M20.7,20.1L20.7,20.1L20.4,20l-0.1,0c0,0-0.1,0-0.1,0c-0.1,0.1-0.2,0.2-0.2,0.3c0,0.2,0.1,0.4,0.2,0.5
	l0.1,0.1l0.2,0l0.1,0l0,0c0.1-0.1,0.2-0.2,0.3-0.4l0-0.1l0-0.1l0-0.1C20.8,20.2,20.7,20.1,20.7,20.1L20.7,20.1z"/>
<path fill="#3F3B3C" d="M29.9,26.7c0.1,0,0.2,0,0.4,0l0.2-0.2l0.1-0.2l-0.1-0.3l-0.1-0.2l-0.3-0.1l-0.2,0l-0.3,0.1
	c-0.4,0.3-0.2,0.7-0.2,0.8l0.2,0.2L29.9,26.7z"/>
<path fill="#3F3B3C" d="M35.5,19.2l-0.2-0.1l-0.2,0l-0.2,0c-0.1,0-0.1,0.1-0.1,0.1c-0.4,0.3-0.4,0.7-0.3,0.9l0.1,0.2l0.1,0.1
	l0.2,0.1c0.2,0,0.4,0,0.5-0.2c0.2-0.1,0.3-0.3,0.3-0.6C35.7,19.6,35.7,19.4,35.5,19.2z"/>
<path fill="#3F3B3C" d="M26.1,8.5L26.1,8.5c0.1-0.2,0-0.4-0.1-0.5c-0.1-0.1-0.2-0.1-0.3,0l-0.1,0.1c0,0.1,0.1,0.3,0.2,0.4
	C25.9,8.6,26,8.5,26.1,8.5z"/>
<path fill="#3F3B3C" d="M12.8,24.9l-0.1,0.1c0,0.1,0.1,0.3,0.2,0.4l0.2,0l0,0c0.2-0.1,0.1-0.3,0.1-0.4
	C13.1,24.9,12.9,24.9,12.8,24.9z"/>
<path fill="#3F3B3C" d="M37.1,35.6l0,0.2c0,0,0,0,0,0c0,0.1-0.1,0.1-0.1,0.2c0,0,0,0,0.1,0l0,0.2c0.1,0,0.3-0.1,0.3-0.3l-0.2,0
	c0,0,0,0,0,0l0.2,0c0-0.1,0-0.1,0-0.2C37.2,35.6,37.2,35.6,37.1,35.6z"/>
<path fill="#3F3B3C" d="M3.1,20.8l-0.1,0c-0.1,0.1-0.2,0.3-0.1,0.4c0,0.1,0.1,0.1,0.2,0.2l0.2-0.1c0,0,0,0,0,0l0.2-0.1
	C3.4,20.9,3.2,20.8,3.1,20.8z"/>
<path fill="#3F3B3C" d="M13,19.7L13,19.7c-0.1-0.2-0.2-0.2-0.4-0.2c-0.2,0-0.3,0.1-0.4,0.3l0,0.2l0.1,0.2l0.2,0.1l0.1,0
	c0.3,0,0.4-0.2,0.5-0.3l0-0.1L13,19.7z"/>
<path fill="#3F3B3C" d="M7.9,26.1l-0.2-0.2c-0.1,0-0.2,0-0.2,0.1c0,0.1-0.1,0.1,0,0.2l0.2,0.1c0,0,0,0,0,0
	C7.8,26.3,7.9,26.3,7.9,26.1L7.9,26.1C7.9,26.1,7.9,26.1,7.9,26.1z"/>
<path fill="#3F3B3C" d="M12.7,8.5l-0.1-0.2c0,0-0.1,0-0.1-0.1c0,0-0.1-0.1-0.2-0.1l-0.2,0.1c0,0.1,0,0.2,0.1,0.3
	c0.1,0.1,0.1,0.1,0.2,0.1C12.4,8.8,12.6,8.7,12.7,8.5z"/>
<path fill="#3F3B3C" d="M9.3,13.9C9.1,13.9,9,14,9,14.1l0.1,0.2c0,0,0,0,0,0c0,0,0.1,0.1,0.2,0.1c0,0,0.1,0,0.1,0l0.1-0.1
	c0-0.1,0-0.2,0-0.3C9.4,13.9,9.3,13.9,9.3,13.9z"/>
<path fill="#3F3B3C" d="M36.1,29.3L36.1,29.3c0.1-0.1,0.2-0.3,0.1-0.5c-0.1-0.2-0.2-0.3-0.4-0.4l-0.2,0l-0.2,0.1l-0.1,0.1l0,0
	c-0.1,0.1-0.3,0.3-0.3,0.6c0,0.2,0.1,0.4,0.2,0.5l0.4,0.1l0.2-0.1l0,0C36,29.6,36.1,29.4,36.1,29.3z"/>
<path fill="#3F3B3C" d="M37.9,15.8l-0.1,0c-0.3,0-0.5,0.2-0.5,0.3l0,0.1l0,0.2l0,0.1c0.1,0.1,0.2,0.2,0.4,0.2c0.1,0,0.3-0.1,0.3-0.1
	c0.1-0.1,0.1-0.2,0.1-0.4l-0.1-0.1L37.9,15.8z"/>
<path fill="#3F3B3C" d="M30.2,15.6c0,0-0.1-0.1-0.2-0.1l-0.1,0l-0.2,0.1c0,0-0.1,0.1-0.1,0.2l0,0.1l0.2,0.2c0,0,0.1,0.1,0.2,0.1
	l0.1,0l0.2-0.2c0,0,0.1-0.1,0.1-0.2l0-0.1L30.2,15.6z"/>
<path fill="#3F3B3C" d="M39.8,27.6l0.1-0.2l0-0.2c0-0.3-0.1-0.4-0.3-0.5l-0.1,0l-0.1,0l0,0c-0.3,0-0.4,0.2-0.4,0.3l0,0.1l0,0.1
	c0,0.2,0.2,0.3,0.4,0.3C39.6,27.8,39.6,27.8,39.8,27.6L39.8,27.6z"/>
<path fill="#3F3B3C" d="M40.1,31.1l-0.2,0l-0.2,0.1l-0.1,0.1c0,0.1,0,0.4,0.1,0.5c0.1,0.1,0.2,0.1,0.3,0.2c0,0,0.1,0,0.1,0l0.1-0.1
	l0.1-0.2l0-0.1C40.5,31.6,40.4,31.2,40.1,31.1z"/>
<path fill="#3F3B3C" d="M-0.4,32.3l-0.2-0.1L-1,32.4l0,0.3c0.1,0.1,0.2,0.1,0.3,0.2c0.1,0.1,0.2,0.1,0.3,0.2l0.2-0.1
	c0.1-0.2,0-0.3-0.1-0.4C-0.4,32.4-0.4,32.3-0.4,32.3z"/>
<path fill="#3F3B3C" d="M0.6,34.5L0.6,34.5c0-0.1,0-0.2-0.1-0.3l0-0.1l-0.1-0.2l0-0.1c0,0-0.1-0.1-0.2-0.2l-0.3,0l-0.2,0.1l-0.1,0
	c-0.2,0.1-0.3,0.2-0.3,0.4l0,0.2l0.1,0.2l0.1,0.1l0,0.2l0.1,0.2l0.2,0.2c0.4,0.1,0.6,0,0.8-0.2L0.6,34.5L0.6,34.5z"/>
<path fill="#3F3B3C" d="M-0.4,21.1c0-0.1,0-0.1,0-0.2l-0.2,0c0,0-0.1-0.1-0.3,0c0,0,0,0-0.1,0L-1,21c0,0.1,0.1,0.2,0.2,0.2
	C-0.7,21.3-0.4,21.2-0.4,21.1z"/>
<path fill="#3F3B3C" d="M0.1,36.3L0,36.2L-0.2,36c-0.2-0.1-0.3,0-0.5,0.1c-0.2,0.1-0.3,0.3-0.4,0.5l0,0.2l0.1,0.2l0.2,0.2
	c0.2,0.1,0.4,0.1,0.6,0c0.1-0.1,0.4-0.3,0.3-0.7L0.1,36.3z"/>
<path fill="#3F3B3C" d="M-0.3,27.6L-0.3,27.6c0-0.2-0.1-0.4-0.2-0.5c-0.2-0.1-0.4-0.1-0.6,0l-0.2,0.2l-0.1,0.2l0,0.1l0,0.1
	c0,0.1-0.1,0.4,0.1,0.7c0.1,0.1,0.3,0.2,0.5,0.2l0.3-0.2l0.1-0.2l0,0C-0.2,28-0.2,27.8-0.3,27.6z"/>
<path fill="#3F3B3C" d="M0.1,31.6l0.1-0.2l0-0.2c0-0.3-0.1-0.4-0.3-0.5l-0.1,0l-0.1,0l0,0c-0.3,0-0.4,0.2-0.4,0.3l0,0.1l0,0.1
	c0,0.2,0.2,0.3,0.4,0.3C-0.2,31.8-0.1,31.8,0.1,31.6L0.1,31.6z"/>
<path fill="#3F3B3C" d="M0.4,35.1l-0.2,0L0,35.2L0,35.4c0,0.1,0,0.4,0.1,0.5c0.1,0.1,0.2,0.1,0.3,0.2c0,0,0.1,0,0.1,0L0.6,36
	l0.1-0.2l0-0.1C0.8,35.6,0.7,35.2,0.4,35.1z"/>
<path fill="#3F3B3C" d="M19.6,33.3L19.6,33.3c0-0.1-0.1-0.2-0.2-0.3l0-0.1l-0.1-0.1l0,0c0,0-0.1-0.1-0.3-0.1l-0.3,0.1l-0.2,0.1
	l-0.1,0.1c-0.1,0.1-0.2,0.3-0.1,0.5l0.1,0.2l0.1,0.1l0.1,0l0.1,0.2l0.2,0.2l0.3,0.1c0.4,0,0.6-0.2,0.6-0.5L19.6,33.3L19.6,33.3z"/>
<path fill="#3F3B3C" d="M15.2,26.4c-0.1,0-0.3,0-0.3,0.1c-0.1,0.1-0.1,0.2-0.1,0.3l0.1,0.1l0.1,0.1l0,0l0.1,0.1l0.1,0.1l0.1,0l0.1,0
	l0.1-0.1l0.1-0.1c0.1-0.1,0.1-0.3,0-0.4C15.5,26.5,15.3,26.4,15.2,26.4z"/>
<path fill="#3F3B3C" d="M20,20.8c-0.1,0-0.2,0-0.3,0.1L19.5,21l-0.1,0.1l-0.1,0.2l0,0.3l0.1,0.2l0.1,0.2l0.2,0.1l0.4,0l0.3-0.1
	l0.2-0.1l0.1-0.2C20.7,21.2,20.4,20.8,20,20.8z"/>
<path fill="#3F3B3C" d="M20.1,30L20,29.9l-0.3-0.1c-0.5,0-0.7,0.4-0.8,0.5l0,0.1l0,0.2l0,0.2L19,31c0.1,0.1,0.3,0.2,0.5,0.2
	c0.2,0,0.4-0.1,0.6-0.3c0.2-0.2,0.2-0.4,0.2-0.7L20.1,30z"/>
<path fill="#3F3B3C" d="M26,8.8l0.2-0.1l-0.4-0.1l0.1,0.2C25.9,8.7,26,8.8,26,8.8z"/>
<path fill="#3F3B3C" d="M26.5,29.1l0.2-0.1l0.1-0.2l0-0.1l-0.1-0.2l-0.2-0.2c0,0-0.1-0.1-0.3-0.1L26,28.1l-0.2,0.1l-0.1,0.1
	c0,0.1-0.2,0.2-0.1,0.5l0.1,0.2l0.1,0.1l0.2,0.1l0.2,0L26.5,29.1z"/>
<path fill="#3F3B3C" d="M27.3,32.9l0-0.2l-0.1-0.2c-0.1-0.1-0.3-0.2-0.5-0.2c-0.2,0-0.5,0.1-0.6,0.3L26,32.8l0,0.2l0.1,0.2
	c0.2,0.2,0.3,0.3,0.5,0.3c0.1,0,0.4,0,0.6-0.5L27.3,32.9z"/>
<path fill="#3F3B3C" d="M7.4,31.4C7.4,31.4,7.3,31.4,7.4,31.4c-0.1,0-0.2,0-0.3,0.1c0,0.1-0.1,0.1,0,0.2l0,0.1
	c0.1,0.1,0.1,0.1,0.2,0.1c0.2,0,0.3-0.2,0.3-0.2L7.4,31.4C7.4,31.4,7.4,31.4,7.4,31.4z"/>
<path fill="#3F3B3C" d="M31.3,31.7l-0.1-0.1l-0.2,0c-0.3,0.1-0.5,0.3-0.6,0.4l-0.1,0.2l0,0.2l0,0.2c0.1,0.2,0.3,0.4,0.6,0.4
	c0.3,0,0.5-0.2,0.7-0.4c0.1-0.2,0.1-0.5-0.1-0.7L31.3,31.7z"/>
<path fill="#3F3B3C" d="M23.6,14.8L23.6,14.8l-0.1-0.2l-0.1-0.1c0,0-0.1,0-0.1,0c-0.1,0-0.2,0-0.3,0.1c-0.2,0.2-0.1,0.4-0.1,0.5
	l0,0.1l0.1,0.1l0.1,0.1l0,0c0.2,0,0.3,0,0.4-0.1l0-0.1l0.1-0.1l0-0.1C23.7,15,23.6,14.9,23.6,14.8L23.6,14.8z"/>
<path fill="#3F3B3C" d="M26.8,25.7c0,0,0.1,0.2,0.3,0.2l0.3-0.1l0.2-0.1l0.1-0.3l0-0.2L27.6,25l-0.2-0.2l-0.3-0.1
	c-0.5,0-0.6,0.4-0.6,0.5l0.1,0.3L26.8,25.7z"/>
<path fill="#3F3B3C" d="M35.8,23.4l-0.1-0.2L35.5,23l-0.2-0.1c-0.1,0-0.1,0-0.2,0c-0.5,0-0.8,0.3-0.8,0.5l0,0.2l0,0.2l0.1,0.2
	c0.1,0.1,0.3,0.2,0.5,0.2c0.2,0,0.4-0.1,0.6-0.2C35.7,23.8,35.8,23.6,35.8,23.4z"/>
<path fill="#3F3B3C" d="M13.8,35.6c0,0-0.1-0.1-0.2-0.1l-0.1,0l-0.2,0.1c0,0-0.1,0.1-0.1,0.2l0,0.1l0.1,0.2c0,0,0.1,0.1,0.2,0.1
	l0.1,0l0.2-0.2c0,0,0.1-0.1,0.1-0.2l0-0.1L13.8,35.6z"/>
<path fill="#3F3B3C" d="M35.1,9.1l0.1,0c0.1-0.1,0.1-0.3,0.1-0.4c0-0.1-0.1-0.2-0.2-0.2l-0.1,0c-0.1,0.1-0.1,0.3-0.1,0.4
	C34.9,9,34.9,9.1,35.1,9.1z"/>
<path fill="#3F3B3C" d="M14.4,13.7l-0.1,0.1c-0.1,0.1-0.1,0.3-0.1,0.4l0.1,0.1l0,0c0.2,0,0.3-0.2,0.3-0.3
	C14.7,13.8,14.6,13.7,14.4,13.7z"/>
<path fill="#3F3B3C" d="M14.9,6.5l-0.2-0.2c-0.1,0-0.1,0-0.2,0c-0.1,0-0.2,0-0.3,0l0,0.3c0,0,0,0,0.1,0.1c0.1,0.1,0.2,0.1,0.3,0.1
	l0.1-0.1L14.9,6.5z"/>
<path fill="#3F3B3C" d="M37.1,7.3l0-0.1c0-0.1-0.2-0.2-0.4-0.2c-0.1,0-0.2,0.1-0.2,0.2l0.1,0.2c0,0,0,0,0,0l0.1,0.2
	C37,7.6,37.1,7.3,37.1,7.3z"/>
<path fill="#3F3B3C" d="M33,16.7L33,16.7c0.2-0.1,0.2-0.2,0.3-0.3c0-0.2,0-0.4-0.2-0.5l-0.2,0L32.7,16l-0.1,0.2l0,0.1
	c-0.1,0.3,0.1,0.5,0.2,0.5l0.1,0L33,16.7z"/>
<path fill="#3F3B3C" d="M27.3,10.8l0.2-0.1c0-0.1,0-0.2-0.1-0.2c0,0-0.1-0.1-0.2-0.1l-0.1,0.1c0,0,0,0,0,0
	C27.1,10.6,27.1,10.8,27.3,10.8L27.3,10.8C27.3,10.8,27.3,10.8,27.3,10.8z"/>
<path fill="#3F3B3C" d="M23.5,2.6C23.5,2.6,23.5,2.6,23.5,2.6l0-0.2c-0.1,0-0.2,0-0.3,0c0,0-0.1,0.1-0.1,0.2l0,0l0.1,0.2
	c0,0,0.1,0,0.1,0.1l0.2-0.1C23.6,2.7,23.6,2.6,23.5,2.6z"/>
<path fill="#3F3B3C" d="M39.3,13.7c0-0.1-0.1-0.3-0.2-0.3l-0.2,0.1c0,0,0,0,0,0c0,0-0.1,0.1-0.1,0.2c0,0,0,0.1,0,0.1l0.1,0.1
	c0.1,0,0.2,0,0.3,0C39.2,13.9,39.3,13.8,39.3,13.7z"/>
<path fill="#3F3B3C" d="M6.3,38.3c0.1,0,0.2-0.1,0.2-0.2l-0.1-0.2c-0.1,0-0.4,0.1-0.4,0.3c0,0.1,0,0.2,0.1,0.2L6.3,38.3
	C6.3,38.4,6.3,38.3,6.3,38.3z"/>
<path fill="#3F3B3C" d="M11,29L11,29c0.1-0.1,0.2-0.2,0.2-0.3c0-0.1,0-0.3-0.3-0.5l-0.1,0l-0.3,0.1c0,0-0.1,0.1-0.1,0.3l0,0.1l0,0.1
	l0.1,0.1l0.1,0.1l0.1,0l0.1,0L11,29z"/>
<path fill="#3F3B3C" d="M34.8,34.3c0,0,0.1-0.1,0.1-0.2l0-0.1l-0.1-0.2c0,0-0.1-0.1-0.2-0.1l-0.1,0l-0.2,0.1c0,0-0.1,0.1-0.1,0.2
	l0,0.1l0.1,0.2c0,0,0.1,0.1,0.2,0.1l0.1,0L34.8,34.3z"/>
<path fill="#3F3B3C" d="M11.2,33.2c0,0,0.1-0.1,0.1-0.2l0-0.1l-0.1-0.2c0,0-0.1-0.2-0.3-0.1l-0.1,0l-0.1,0.1l-0.1,0.1l0,0.2l0,0.1
	l0.1,0.2l0.1,0.1l0.1,0l0.1,0L11.2,33.2z"/>
<path fill="#3F3B3C" d="M18.7,21.5L18.7,21.5c0.1,0,0.2-0.1,0.3-0.2l0.1,0l0.2-0.1l0,0c0,0,0.1-0.1,0.2-0.2l0-0.3l-0.1-0.2l-0.1-0.1
	c-0.1-0.1-0.3-0.2-0.5-0.2l-0.2,0.1l-0.1,0.1l0,0.1l-0.2,0.1l-0.2,0.1L18,20.9c-0.1,0.4,0.2,0.6,0.4,0.7L18.7,21.5L18.7,21.5z"/>
<path fill="#3F3B3C" d="M26.1,18c0-0.1,0-0.3-0.1-0.3c-0.1-0.1-0.2-0.1-0.3-0.1l-0.1,0l-0.1,0.1l0,0l-0.1,0.1l-0.1,0.1l0,0.1l0,0.1
	l0,0.1l0,0.1c0.1,0.1,0.3,0.1,0.4,0.1C26,18.3,26.1,18.1,26.1,18z"/>
<path fill="#3F3B3C" d="M31,23.5c0-0.1,0-0.2,0-0.4L30.9,23l-0.1-0.1l-0.2-0.1l-0.3-0.1L30,22.8l-0.2,0.1l-0.1,0.2l-0.1,0.4l0.1,0.3
	l0.1,0.2l0.2,0.1C30.6,24.2,31,23.9,31,23.5z"/>
<path fill="#3F3B3C" d="M21.9,22.4l0.1-0.1l0.1-0.3c0.1-0.5-0.3-0.8-0.4-0.8l-0.1,0l-0.2-0.1l-0.2,0l-0.2,0.1
	c-0.1,0.1-0.2,0.3-0.2,0.4c0,0.2,0,0.4,0.2,0.6c0.2,0.2,0.4,0.3,0.7,0.3L21.9,22.4z"/>
<path fill="#3F3B3C" d="M8.1,14.5L8,14.3l-0.4-0.1l-0.2,0.2c0,0.1,0.1,0.2,0.1,0.3c0,0.1,0,0.2,0.1,0.3l0.2,0.1C8,15,8,14.9,8,14.7
	C8,14.6,8,14.6,8.1,14.5z"/>
<path fill="#3F3B3C" d="M22,28.8l0.1,0.2l0.2,0.1l0.1,0l0.2-0.1l0.2-0.1c0,0,0.1-0.1,0.2-0.2l0-0.3l-0.1-0.2l-0.1-0.1
	c0,0-0.2-0.2-0.5-0.2l-0.2,0.1l-0.1,0.1l-0.1,0.2l0,0.2L22,28.8z"/>
<path fill="#3F3B3C" d="M18.1,29.1l0.2,0l0.2-0.1c0.1-0.1,0.2-0.2,0.3-0.4c0-0.2,0-0.5-0.2-0.6l-0.2-0.1l-0.2,0l-0.2,0.1
	c-0.2,0.1-0.3,0.3-0.3,0.5c0,0.1,0,0.4,0.4,0.7L18.1,29.1z"/>
<path fill="#3F3B3C" d="M9.4,25.5c0-0.1-0.1-0.1-0.2-0.1L9,25.6c0,0-0.1,0.1-0.2,0.2c0,0,0,0.1,0,0.1L8.9,26c0.1,0,0.2,0,0.3,0
	C9.4,25.9,9.5,25.6,9.4,25.5z"/>
<path fill="#3F3B3C" d="M11.7,23.1c0-0.2,0-0.3-0.1-0.4c-0.1-0.1-0.3-0.1-0.4-0.1l-0.1,0.1L11,22.8l0,0.1l0,0.2l0,0.1l0.1,0.1
	l0.1,0.1c0.1,0.1,0.3,0.1,0.4,0.1C11.6,23.3,11.7,23.2,11.7,23.1z"/>
<path fill="#3F3B3C" d="M22.2,9.6C22.2,9.6,22.2,9.6,22.2,9.6c0-0.1,0-0.2,0-0.3c-0.1-0.1-0.1-0.1-0.2-0.1l-0.1,0
	c-0.1,0.1-0.1,0.1-0.1,0.2c0,0.2,0.1,0.3,0.2,0.3L22.2,9.6C22.1,9.7,22.2,9.6,22.2,9.6z"/>
<path fill="#3F3B3C" d="M18.7,33.3l0.1-0.1l0-0.2c0-0.3-0.2-0.5-0.3-0.7l-0.2-0.1l-0.2,0l-0.2,0c-0.2,0.1-0.4,0.3-0.4,0.5
	c0,0.3,0.1,0.6,0.3,0.7c0.2,0.2,0.5,0.2,0.7,0L18.7,33.3z"/>
<path fill="#3F3B3C" d="M36.5,27.8L36.5,27.8l0.2-0.1l0.1-0.1c0,0,0-0.1,0-0.1c0-0.1,0-0.3-0.1-0.4c-0.1-0.2-0.4-0.2-0.5-0.2l-0.1,0
	L36,27.1l-0.1,0.1l0,0c0,0.2,0,0.3,0.1,0.5l0,0l0.1,0.1l0.1,0C36.3,27.9,36.5,27.8,36.5,27.8L36.5,27.8z"/>
<path fill="#3F3B3C" d="M25.3,29.5c-0.1,0-0.2,0.1-0.2,0.3l0,0.3l0.1,0.2l0.3,0.2l0.2,0l0.3-0.1l0.2-0.1l0.1-0.3
	c0.1-0.5-0.3-0.6-0.4-0.7l-0.3,0L25.3,29.5z"/>
<path fill="#3F3B3C" d="M17.1,15.4c0,0,0.1-0.1,0.1-0.2l0-0.1l-0.1-0.2c0,0-0.1-0.1-0.2-0.1l-0.1,0l-0.2,0.1c0,0-0.1,0.1-0.1,0.2
	l0,0.1l0.1,0.2c0,0,0.1,0.1,0.2,0.1l0.1,0L17.1,15.4z"/>
<path fill="#3F3B3C" d="M38.8,18.8l0-0.1c-0.1-0.1-0.2-0.2-0.4-0.2l-0.1,0.1l0,0c0,0.2,0.1,0.3,0.3,0.4C38.6,19.1,38.8,19,38.8,18.8
	z"/>
<path fill="#3F3B3C" d="M28,31.1l0.1,0.2c0,0,0,0,0,0c0,0.1,0,0.1,0,0.2c0,0,0,0,0.1,0l0.1,0.2c0.1-0.1,0.2-0.2,0.1-0.4l-0.2,0.1
	c0,0,0,0,0,0l0.2-0.1c0-0.1-0.1-0.1-0.1-0.1C28.1,31.1,28,31.1,28,31.1z"/>
<path fill="#3F3B3C" d="M24.6,25.7L24.6,25.7c0-0.2,0-0.4-0.1-0.6c-0.1-0.2-0.3-0.2-0.5-0.2l-0.2,0.1l-0.1,0.1l-0.1,0.1l0,0.1
	c-0.1,0.1-0.2,0.4-0.1,0.7c0.1,0.2,0.2,0.3,0.4,0.4l0.4-0.1l0.1-0.1l0,0C24.6,26,24.6,25.8,24.6,25.7z"/>
<path fill="#3F3B3C" d="M20.9,12.6l-0.1,0c-0.3,0.1-0.4,0.3-0.4,0.5l0,0.1l0.1,0.1l0.1,0.1c0.1,0.1,0.3,0.1,0.4,0
	c0.1,0,0.2-0.1,0.3-0.3c0-0.1,0-0.3-0.1-0.4l-0.1-0.1L20.9,12.6z"/>
<path fill="#3F3B3C" d="M13.8,15.5c0,0-0.1,0-0.2,0l-0.1,0.1l-0.1,0.2c0,0,0,0.1,0,0.2l0.1,0.1l0.2,0.1c0,0,0.1,0,0.2,0l0.1-0.1
	l0.1-0.2c0,0,0-0.1,0-0.2L14,15.6L13.8,15.5z"/>
<path fill="#3F3B3C" d="M35,32.5C35,32.5,35,32.4,35,32.5c-0.1-0.1-0.1-0.2-0.3-0.2l-0.1,0.2c0,0,0,0.1,0,0.1l0.2,0.2c0,0,0,0,0.1,0
	c0.1,0,0.2,0,0.2,0c0,0,0.1-0.1,0.1-0.2L35,32.5C35,32.5,35,32.5,35,32.5z"/>
<path fill="#3F3B3C" d="M26.8,9c-0.2,0.1-0.2,0.2-0.2,0.4l0.2,0.1c0,0,0.1,0,0.2,0l0.1-0.2c0,0,0-0.1,0-0.2L27.1,9
	C27.1,9,26.9,9,26.8,9z"/>
<path fill="#3F3B3C" d="M32.9,25.5c0.1,0.1,0.2,0.2,0.3,0.2l0.1-0.2c0,0,0,0,0,0c0-0.1,0-0.2-0.1-0.3l-0.1-0.1
	C32.9,25.1,32.8,25.3,32.9,25.5z"/>
<path fill="#3F3B3C" d="M27.4,22.7l0-0.2l0-0.1c-0.1-0.3-0.3-0.4-0.5-0.3l-0.1,0.1l0,0.1l0,0c-0.2,0.1-0.2,0.3-0.2,0.4l0,0.1
	l0.1,0.1c0.1,0.2,0.3,0.2,0.5,0.2C27.2,23,27.2,22.9,27.4,22.7L27.4,22.7z"/>
<path fill="#3F3B3C" d="M29,25.8l-0.1,0.1l-0.1,0.2l0,0.2c0,0.1,0.1,0.3,0.3,0.4c0.1,0.1,0.2,0.1,0.4,0c0,0,0.1,0,0.1,0l0.1-0.1
	l0.1-0.2l0-0.1C29.5,26.1,29.3,25.8,29,25.8z"/>
<path fill="#3F3B3C" d="M35,18.4c0,0.2,0,0.5-0.1,0.7l0.2,0.2c0.2-0.1,0.3-0.4,0.3-0.6c0-0.2,0-0.3-0.1-0.4L35,18.4z"/>
<path fill="#3F3B3C" d="M28.4,15.9l-0.1,0.2c0,0,0,0,0,0c0,0.1,0,0.2,0.1,0.3l0.2,0.1c0,0,0.1,0,0.1,0c0.2-0.1,0.3-0.2,0.2-0.4
	l-0.2-0.1C28.6,15.9,28.5,15.9,28.4,15.9z"/>
<path fill="#3F3B3C" d="M11,37.9L11,37.9c-0.1-0.1-0.2-0.1-0.3-0.2l-0.1-0.1l-0.2-0.1l-0.1,0c0,0-0.2,0-0.3,0l-0.2,0.2l-0.1,0.2
	l0,0.1c0,0.2,0,0.3,0.1,0.5l0.2,0.1l0.2,0.1l0.1,0l0.2,0.2l0.2,0.1l0.3,0c0.4-0.2,0.4-0.5,0.4-0.7L11,37.9L11,37.9z"/>
<path fill="#3F3B3C" d="M4.2,31.3c-0.1,0.1-0.2,0.1-0.3,0.3c0,0.1,0,0.2,0,0.3L4.1,32l0.1,0l0,0L4.3,32l0.2,0l0.1,0l0.1-0.1l0.1-0.1
	l0-0.1c0-0.2,0-0.3-0.1-0.4C4.5,31.3,4.3,31.2,4.2,31.3z"/>
<path fill="#3F3B3C" d="M6.4,24.2c-0.1,0-0.2,0.1-0.3,0.2l-0.1,0.2l0,0.2L6,25l0.1,0.3l0.2,0.2l0.2,0.1l0.3,0l0.4-0.1l0.2-0.2
	L7.4,25l0-0.3C7.3,24.3,6.8,24.1,6.4,24.2z"/>
<path fill="#3F3B3C" d="M10.2,34.7L10,34.6l-0.3,0c-0.5,0.2-0.5,0.6-0.5,0.8l0,0.1l0.1,0.2l0.1,0.2L9.6,36c0.2,0.1,0.3,0.1,0.5,0
	c0.2-0.1,0.4-0.3,0.4-0.5c0.1-0.2,0-0.5-0.1-0.7L10.2,34.7z"/>
<path fill="#3F3B3C" d="M7.2,10.9l0.1-0.2l-0.4,0l0.2,0.1C7.1,10.8,7.2,10.9,7.2,10.9z"/>
<path fill="#3F3B3C" d="M15.7,29.3l0.1-0.2l0-0.3l0-0.1l-0.2-0.2l-0.2-0.1c0,0-0.2-0.1-0.3,0l-0.2,0.2l-0.1,0.2l0,0.1
	c0,0.1-0.1,0.3,0.1,0.5l0.2,0.1l0.2,0.1l0.2,0l0.2-0.1L15.7,29.3z"/>
<path fill="#3F3B3C" d="M17.9,32.5l-0.1-0.1l-0.1-0.1c-0.2-0.1-0.3-0.1-0.5,0c-0.2,0.1-0.4,0.3-0.5,0.5l0,0.3l0.1,0.2l0.2,0.2
	c0.2,0.1,0.4,0.1,0.6,0c0.1,0,0.4-0.2,0.4-0.7L17.9,32.5z"/>
<path fill="#3F3B3C" d="M21.2,29.8l-0.2,0l-0.2,0.1c-0.3,0.2-0.3,0.4-0.4,0.6l0,0.2l0,0.2l0.1,0.2c0.2,0.2,0.4,0.2,0.7,0.1
	c0.3-0.1,0.4-0.4,0.4-0.6c0-0.3-0.1-0.5-0.4-0.7L21.2,29.8z"/>
<path fill="#3F3B3C" d="M7.4,17.3L7.4,17.3l-0.2-0.1l-0.1,0c0,0-0.1,0-0.1,0c-0.1,0-0.2,0.1-0.3,0.3c-0.1,0.2,0,0.4,0.1,0.5l0.1,0.1
	L7,18.1l0.1,0l0,0c0.2-0.1,0.3-0.2,0.4-0.3l0-0.1l0-0.1l0-0.1C7.5,17.4,7.4,17.4,7.4,17.3L7.4,17.3z"/>
<path fill="#3F3B3C" d="M14.6,26.1c0.1,0,0.2,0.1,0.4,0.1l0.3-0.2l0.1-0.2l0-0.3l-0.1-0.2l-0.2-0.2L14.9,25l-0.3,0
	c-0.5,0.2-0.4,0.6-0.4,0.7l0.2,0.2L14.6,26.1z"/>
<path fill="#3F3B3C" d="M21.9,20.4l-0.2-0.2l-0.2-0.1l-0.2,0c-0.1,0-0.1,0-0.2,0.1c-0.5,0.2-0.6,0.5-0.6,0.8l0.1,0.2l0.1,0.1
	l0.2,0.1c0.2,0.1,0.4,0.1,0.5,0c0.2-0.1,0.4-0.2,0.4-0.5C22,20.8,22,20.6,21.9,20.4z"/>
<path fill="#3F3B3C" d="M15.6,7.6L15.6,7.6c0.1-0.2,0.1-0.4,0-0.5C15.6,7,15.5,7,15.4,7l-0.1,0.1c-0.1,0.1,0,0.3,0.1,0.4
	C15.4,7.6,15.5,7.6,15.6,7.6z"/>
<path fill="#3F3B3C" d="M22.3,8.4l0-0.2C22.2,8.1,22.1,8,22.1,8c-0.1-0.1-0.1-0.1-0.2-0.2L21.7,8c0,0,0,0.1,0,0.1
	c0,0.1,0,0.2,0.1,0.4l0.2,0L22.3,8.4z"/>
<path fill="#3F3B3C" d="M37.4,24.7l0.1-0.1c0-0.1,0-0.3-0.2-0.4c-0.1-0.1-0.2-0.1-0.2,0L37,24.3c0,0,0,0,0-0.1L37,24.5
	C37.2,24.8,37.4,24.7,37.4,24.7z"/>
<path fill="#3F3B3C" d="M27.9,28.4L27.9,28.4c0.2,0.1,0.3,0,0.4,0c0.1-0.1,0.2-0.3,0.2-0.5l-0.1-0.1l-0.2-0.1l-0.2,0l-0.1,0
	c-0.3,0.2-0.2,0.4-0.2,0.5l0.1,0.1L27.9,28.4z"/>
<path fill="#3F3B3C" d="M28,20.2l0.2,0c0,0,0.1-0.1,0.1-0.2c0-0.1,0-0.1-0.1-0.2l-0.2,0c0,0,0,0,0,0C28,19.9,27.8,20.1,28,20.2
	L28,20.2C28,20.2,28,20.2,28,20.2z"/>
<path fill="#3F3B3C" d="M31.1,11.7C31.1,11.7,31.1,11.8,31.1,11.7l0.1-0.2c-0.1-0.1-0.1-0.2-0.2-0.2c-0.1,0-0.1,0-0.2,0.1l0,0l0,0.2
	c0,0,0,0.1,0,0.1l0.2,0.1C31.1,11.8,31.1,11.8,31.1,11.7z"/>
<path fill="#3F3B3C" d="M34.4,30.7c0.1-0.1,0.2-0.2,0.1-0.4l-0.2-0.1c0,0,0,0,0,0c0,0-0.1,0-0.2,0.1c0,0,0,0-0.1,0.1l0,0.2
	c0,0.1,0.1,0.2,0.2,0.2C34.3,30.8,34.3,30.8,34.4,30.7z"/>
<path fill="#3F3B3C" d="M3.8,37L3.8,37c0,0.2,0,0.4,0.2,0.5c0.2,0.1,0.4,0.1,0.6,0.1l0.2-0.2l0.1-0.2l0-0.1l0-0.1
	c0-0.1,0.1-0.4-0.1-0.7c-0.1-0.1-0.3-0.2-0.5-0.2L4,36.3l-0.1,0.2l0,0C3.7,36.6,3.7,36.8,3.8,37z"/>
<path fill="#3F3B3C" d="M3.6,25.6L3.6,25.6c0.1,0,0.3,0,0.4-0.1c0.1,0,0.2-0.2,0.1-0.5L4,24.9l-0.3-0.1c0,0-0.2,0-0.3,0.1l-0.1,0
	l-0.1,0.1l0,0.2l0,0.1l0.1,0.1l0.1,0.1L3.6,25.6z"/>
<path fill="#3F3B3C" d="M14.3,21.7L14.3,21.7c0.1,0.1,0.2,0.1,0.3,0.1l0.1,0.1l0.2,0l0.1,0c0,0,0.2,0,0.3-0.1l0.2-0.2l0.1-0.2l0-0.1
	c0-0.2-0.1-0.3-0.2-0.5l-0.2-0.1l-0.2,0l-0.1,0l-0.2-0.1l-0.2,0l-0.3,0.1c-0.3,0.2-0.3,0.6-0.2,0.8L14.3,21.7L14.3,21.7z"/>
<path fill="#3F3B3C" d="M22.1,24.4c0.1-0.1,0.2-0.2,0.2-0.3c0-0.1,0-0.2-0.1-0.3l-0.1,0l-0.1,0l0,0l-0.1,0l-0.2,0l-0.1,0.1l-0.1,0.1
	l-0.1,0.1l0,0.1c0,0.2,0.1,0.3,0.2,0.3C21.8,24.6,21.9,24.5,22.1,24.4z"/>
<path fill="#3F3B3C" d="M21.7,31.8c0.1-0.1,0.2-0.2,0.2-0.3l0-0.2l0-0.2L21.9,31l-0.2-0.3l-0.2-0.1l-0.2,0L21,30.7l-0.3,0.2
	l-0.1,0.2l0,0.2l0.1,0.3C20.9,32,21.3,32.1,21.7,31.8z"/>
<path fill="#3F3B3C" d="M15.9,24.6l0.2,0l0.3-0.1c0.4-0.3,0.3-0.7,0.3-0.9l0-0.1l-0.1-0.2l-0.1-0.1l-0.2-0.1c-0.2,0-0.3,0-0.5,0.1
	c-0.2,0.1-0.3,0.3-0.3,0.6c0,0.2,0.1,0.5,0.3,0.7L15.9,24.6z"/>
<path fill="#3F3B3C" d="M11.8,9.3L11.9,9l-0.2-0.3l-0.3,0c-0.1,0.1-0.1,0.2-0.2,0.3c-0.1,0.1-0.1,0.2-0.2,0.3l0.1,0.2
	c0.2,0.1,0.3,0,0.4-0.1C11.6,9.3,11.7,9.3,11.8,9.3z"/>
<path fill="#3F3B3C" d="M11.5,29.2l0,0.2l0.1,0.3l0.1,0.1l0.2,0.1l0.2,0c0,0,0.2,0,0.3,0l0.2-0.2l0.1-0.2l0-0.1c0-0.1,0-0.3-0.2-0.5
	l-0.2-0.1l-0.2,0l-0.2,0.1L11.6,29L11.5,29.2z"/>
<path fill="#3F3B3C" d="M8.5,26.7l0.1,0.1l0.2,0.1c0.2,0,0.3,0,0.5-0.1c0.2-0.1,0.3-0.3,0.3-0.6L9.6,26l-0.1-0.2l-0.2-0.1
	c-0.2,0-0.4,0-0.6,0.1c-0.1,0.1-0.3,0.3-0.2,0.7L8.5,26.7z"/>
<path fill="#3F3B3C" d="M4.9,17.9c0-0.1,0-0.1,0-0.2l-0.2,0c-0.1,0-0.2-0.1-0.3,0c0,0,0,0-0.1,0.1l0,0.1c0,0.1,0.1,0.2,0.2,0.2
	C4.7,18.2,4.9,18.1,4.9,17.9z"/>
<path fill="#3F3B3C" d="M8.3,17.9c0.1-0.1,0.2-0.2,0.2-0.4c0-0.1-0.1-0.3-0.2-0.3l-0.1,0l-0.2,0l-0.1,0l-0.2,0.1l-0.1,0.1l-0.1,0.1
	l0,0.1c0,0.2,0.1,0.3,0.3,0.3C8,18,8.1,18,8.3,17.9z"/>
<path fill="#3F3B3C" d="M25.2,15.7C25.2,15.7,25.2,15.7,25.2,15.7c0.1-0.1,0.2-0.1,0.2-0.2c0-0.1,0-0.1-0.1-0.2l-0.1,0
	c-0.1,0-0.2,0-0.2,0c-0.1,0.1-0.1,0.3-0.1,0.4L25.2,15.7C25.1,15.8,25.2,15.7,25.2,15.7z"/>
<path fill="#3F3B3C" d="M6,30.1l0.1,0l0.2-0.1c0.2-0.2,0.2-0.5,0.2-0.7l0-0.2l-0.1-0.1l-0.1-0.1c-0.2-0.1-0.5-0.1-0.7,0.1
	c-0.2,0.2-0.3,0.4-0.3,0.7c0.1,0.3,0.2,0.5,0.5,0.5L6,30.1z"/>
<path fill="#3F3B3C" d="M13.3,32.1c-0.1,0-0.2,0-0.4,0l-0.2,0.2l-0.1,0.2l0.1,0.3l0.1,0.2l0.2,0.1l0.2,0l0.3-0.1
	c0.4-0.3,0.3-0.7,0.2-0.7l-0.2-0.2L13.3,32.1z"/>
<path fill="#3F3B3C" d="M17.5,16.3c0,0,0.1,0,0.2,0l0.1-0.1l0.1-0.2c0-0.1,0-0.1,0-0.2l-0.1-0.1l-0.2-0.1c0,0-0.1,0-0.2,0l-0.1,0.1
	l-0.1,0.3c0,0,0,0.1,0,0.2l0.1,0.1L17.5,16.3z"/>
<path fill="#3F3B3C" d="M30.5,34l0.1-0.1c0-0.1-0.1-0.3-0.2-0.4l-0.2,0l0,0c-0.2,0.1-0.2,0.3-0.1,0.4C30.2,34.1,30.3,34.1,30.5,34z"
	/>
<path fill="#3F3B3C" d="M16.4,33.9l0,0.2c0,0,0,0,0,0c0,0.1-0.1,0.1,0,0.2c0,0,0,0,0.1,0l0,0.2c0.1,0,0.2-0.2,0.2-0.3l-0.2,0
	c0,0,0,0,0,0l0.2,0c0-0.1,0-0.1-0.1-0.1C16.5,34,16.5,33.9,16.4,33.9z"/>
<path fill="#3F3B3C" d="M14.4,27.9L14.4,27.9c0.1-0.1,0.1-0.3,0-0.6C14.4,27.1,14.2,27,14,27L13.8,27l-0.2,0.1l-0.1,0.1l0,0
	c-0.1,0.1-0.3,0.3-0.2,0.6c0,0.2,0.1,0.3,0.3,0.5l0.4,0l0.2-0.1l0,0C14.4,28.2,14.4,28,14.4,27.9z"/>
<path fill="#3F3B3C" d="M14.2,14.2l-0.1,0c-0.3,0.1-0.4,0.2-0.5,0.4l0,0.1l0,0.2l0.1,0.1c0.1,0.1,0.2,0.1,0.4,0.1
	c0.1,0,0.2-0.1,0.3-0.2c0.1-0.1,0.1-0.3,0.1-0.4l-0.1-0.1L14.2,14.2z"/>
<path fill="#3F3B3C" d="M6.5,15.3c0,0-0.1-0.1-0.2-0.1l-0.1,0L6,15.4c0,0-0.1,0.1-0.1,0.2l0,0.1L6.2,16c0,0,0.1,0.1,0.2,0.1l0.1,0
	l0.2-0.2c0,0,0.1-0.1,0.1-0.2l0-0.1L6.5,15.3z"/>
<path fill="#3F3B3C" d="M20.8,12.2c-0.2,0-0.3,0.1-0.3,0.3l0.2,0.2c0,0,0.1,0.1,0.2,0.1l0.2-0.2c0,0,0.1-0.1,0.1-0.2l-0.1-0.1
	C21,12.3,20.9,12.2,20.8,12.2z"/>
<path fill="#3F3B3C" d="M22.6,29.7c0,0.2,0.1,0.3,0.3,0.3l0.1-0.1c0,0,0,0,0,0c0-0.1,0.1-0.1,0-0.3l-0.1-0.1
	C22.7,29.4,22.6,29.5,22.6,29.7z"/>
<path fill="#3F3B3C" d="M17.9,25.7l0.1-0.2l0-0.2c0-0.3-0.2-0.4-0.4-0.4L17.4,25L17.4,25l0,0c-0.3,0.1-0.3,0.3-0.3,0.4l0,0.1
	l0.1,0.1c0.1,0.2,0.2,0.3,0.4,0.3C17.6,25.9,17.7,25.8,17.9,25.7L17.9,25.7z"/>
<path fill="#3F3B3C" d="M18.7,29.1l-0.1,0l-0.2,0.2l-0.1,0.1c0,0.1,0,0.4,0.2,0.5c0.1,0.1,0.2,0.1,0.4,0.1c0,0,0.1,0,0.1,0l0.1-0.1
	l0.1-0.2l0-0.1C19.1,29.5,19,29.1,18.7,29.1z"/>
<path fill="#3F3B3C" d="M26.3,23.3c-0.1,0.2-0.2,0.5-0.3,0.7l0.2,0.2c0.2-0.1,0.3-0.3,0.4-0.5c0-0.2,0-0.3,0-0.4L26.3,23.3z"/>
<path fill="#3F3B3C" d="M20.6,19.3l-0.2,0.1c0,0,0,0,0,0c0,0.1-0.1,0.1,0,0.3l0.1,0.1c0,0,0.1,0,0.1,0c0.2,0,0.3-0.1,0.3-0.3
	l-0.2-0.2C20.8,19.4,20.7,19.3,20.6,19.3z"/>
<path fill="#3F3B3C" d="M31.9,38.2l-0.1,0.1c0,0.1,0,0.3,0.1,0.4l0.2,0l0,0c0.2-0.1,0.2-0.3,0.1-0.4C32.2,38.2,32.1,38.1,31.9,38.2z
	"/>
<path fill="#3F3B3C" d="M33.6,36L33.6,36L33.4,36l-0.1,0c0,0-0.1,0-0.1,0C33,36.1,33,36.2,33,36.3c0,0.2,0.1,0.4,0.2,0.5l0.1,0.1
	l0.2,0l0.1,0l0,0c0.1-0.1,0.2-0.2,0.3-0.4l0-0.1l0-0.1l0-0.1C33.8,36.1,33.7,36.1,33.6,36L33.6,36z"/>
<path fill="#3F3B3C" d="M32.9,36.7c-0.1,0-0.2,0-0.3,0.1l-0.1,0.1l-0.1,0.1l-0.1,0.2l0,0.3l0.1,0.2l0.1,0.2l0.2,0.1l0.4,0l0.3-0.1
	l0.2-0.1l0.1-0.2C33.7,37.1,33.4,36.7,32.9,36.7z"/>
<path fill="#3F3B3C" d="M31.7,37.5L31.7,37.5c0.1,0,0.2-0.1,0.3-0.2l0.1,0l0.2-0.1l0,0c0,0,0.1-0.1,0.2-0.2l0-0.3l-0.1-0.2l-0.1-0.1
	c-0.1-0.1-0.3-0.2-0.5-0.2l-0.2,0.1l-0.1,0.1l0,0.1l-0.2,0.1L31,36.6l-0.1,0.3c-0.1,0.4,0.2,0.6,0.4,0.7L31.7,37.5L31.7,37.5z"/>
<path fill="#3F3B3C" d="M34.8,38.4l0.1-0.1l0.1-0.3c0.1-0.5-0.3-0.8-0.4-0.8l-0.1,0l-0.2-0.1l-0.2,0L34,37.2
	c-0.1,0.1-0.2,0.3-0.2,0.4c0,0.2,0,0.4,0.2,0.6c0.2,0.2,0.4,0.3,0.7,0.3L34.8,38.4z"/>
<path fill="#3F3B3C" d="M34.9,36.4l-0.2-0.2l-0.2-0.1l-0.2,0c-0.1,0-0.1,0-0.2,0.1c-0.5,0.2-0.6,0.5-0.6,0.8l0.1,0.2l0.1,0.1
	l0.2,0.1c0.2,0.1,0.4,0.1,0.5,0c0.2-0.1,0.4-0.2,0.4-0.5C35,36.8,35,36.5,34.9,36.4z"/>
<path fill="#3F3B3C" d="M33.6,35.3l-0.2,0.1c0,0,0,0,0,0c0,0.1-0.1,0.1,0,0.3l0.1,0.1c0,0,0.1,0,0.1,0c0.2,0,0.3-0.1,0.3-0.3
	l-0.2-0.2C33.7,35.3,33.6,35.3,33.6,35.3z"/>
<path fill="#3F3B3C" d="M4.9,29.2L5,29l0.1-0.3l0-0.1L5,28.4l-0.2-0.2c0,0-0.1-0.1-0.3-0.1l-0.3,0.1l-0.2,0.2L4,28.5
	C4,28.6,3.9,28.7,4,29l0.1,0.2l0.2,0.1l0.2,0.1l0.2,0L4.9,29.2z"/>
<path fill="#3F3B3C" d="M6.3,32.8l0-0.2l-0.1-0.2c-0.1-0.1-0.3-0.2-0.5-0.1c-0.2,0-0.4,0.2-0.6,0.3L5,33l0,0.2l0.1,0.2
	c0.2,0.1,0.4,0.2,0.6,0.2c0.1,0,0.4-0.1,0.6-0.5L6.3,32.8z"/>
<path fill="#3F3B3C" d="M10.1,31L10,31l-0.2,0c-0.3,0.1-0.4,0.3-0.5,0.5l-0.1,0.2l0,0.2l0.1,0.2c0.1,0.2,0.4,0.3,0.6,0.3
	c0.3,0,0.5-0.2,0.6-0.5c0.1-0.3,0-0.5-0.2-0.7L10.1,31z"/>
<path fill="#3F3B3C" d="M4.7,25.8c0,0,0.2,0.1,0.3,0.2l0.3-0.1l0.2-0.2l0.1-0.3l0-0.2l-0.2-0.2l-0.2-0.1l-0.3,0
	c-0.5,0.1-0.5,0.4-0.5,0.6l0.1,0.3L4.7,25.8z"/>
<path fill="#3F3B3C" d="M32.7,30.9c-0.1,0-0.1-0.1-0.2-0.1l0,0.2c0,0,0,0,0,0c0,0.1,0.1,0.2,0.1,0.2c0,0,0,0,0.1,0l0,0.2
	c0.1,0,0.2-0.1,0.2-0.2C32.9,31.1,32.8,31,32.7,30.9z"/>
<path fill="#3F3B3C" d="M13.2,22.1l-0.1-0.2l-0.1-0.1l-0.2-0.1c-0.1,0-0.1,0-0.2,0c-0.5,0.1-0.7,0.4-0.7,0.7l0,0.2l0.1,0.1l0.1,0.1
	c0.2,0.1,0.3,0.1,0.5,0.1c0.2,0,0.4-0.1,0.5-0.3C13.2,22.5,13.2,22.3,13.2,22.1z"/>
<path fill="#3F3B3C" d="M10.3,8.1L10.4,8c0.1-0.1,0.1-0.3,0-0.4c-0.1-0.1-0.2-0.2-0.3-0.1l-0.1,0.1C10,7.6,10,7.8,10,7.9
	C10.1,8,10.2,8.1,10.3,8.1z"/>
<path fill="#3F3B3C" d="M27.6,37.7l-0.1-0.2c0,0-0.1,0-0.1-0.1c0,0-0.1-0.1-0.2-0.1l-0.2,0.1c0,0.1,0,0.2,0.1,0.3
	c0.1,0.1,0.1,0.1,0.2,0.1C27.4,37.9,27.6,37.9,27.6,37.7z"/>
<path fill="#3F3B3C" d="M29.9,35.6l-0.2-0.2c-0.1,0-0.1,0-0.2,0c-0.1,0-0.2,0-0.3,0l0,0.3c0,0,0,0,0.1,0.1c0.1,0.1,0.2,0.1,0.3,0.1
	l0.1-0.1L29.9,35.6z"/>
<path fill="#3F3B3C" d="M30.6,36.7L30.6,36.7c0.1-0.2,0.1-0.4,0-0.5c-0.1-0.1-0.2-0.1-0.3-0.1l-0.1,0.1c-0.1,0.1,0,0.3,0.1,0.4
	C30.4,36.7,30.5,36.8,30.6,36.7z"/>
<path fill="#3F3B3C" d="M26.7,38.4l0.1-0.2l-0.2-0.3l-0.3,0c-0.1,0.1-0.1,0.2-0.2,0.3c-0.1,0.1-0.1,0.2-0.2,0.3l0.1,0.2
	c0.2,0.1,0.3,0,0.4-0.1C26.6,38.5,26.6,38.4,26.7,38.4z"/>
<path fill="#3F3B3C" d="M25.3,37.3l0.1-0.1c0.1-0.1,0.1-0.3,0-0.4c-0.1-0.1-0.2-0.2-0.3-0.1L25,36.7c-0.1,0.1-0.1,0.3,0,0.4
	C25,37.2,25.1,37.3,25.3,37.3z"/>
<path fill="#3F3B3C" d="M12.2,12.7c0,0,0.1,0,0.2,0c0.1,0,0.2-0.1,0.2-0.1l-0.1-0.1c0,0,0,0,0,0l0.1,0.1c0.1-0.1,0.1-0.3,0-0.4
	l-0.1,0.1c0,0,0,0,0,0c-0.1,0.1-0.1,0-0.2,0.2c0,0,0,0,0,0L12.2,12.7z"/>
<path fill="#3F3B3C" d="M23.5,34.3l0.2-0.1c0-0.1,0.1-0.1,0.1-0.2c0-0.1,0.1-0.1,0.1-0.2l-0.2-0.1c0,0,0,0-0.1,0
	c-0.1,0-0.2,0.1-0.3,0.2l0,0.2L23.5,34.3z"/>
<path fill="#3F3B3C" d="M5.5,20.1L5.5,20.1c0,0.1,0.1,0.3,0.2,0.4c0.1,0,0.3,0.2,0.5,0l0.1-0.1l0-0.3c0,0,0-0.2-0.2-0.2l-0.1,0
	l-0.1,0l-0.2,0l-0.1,0.1l-0.1,0.1l0,0.1L5.5,20.1z"/>
<path fill="#3F3B3C" d="M8.4,30.5L8.4,30.5c0,0.1,0,0.2,0,0.3l0,0.1l0,0.2l0,0.1c0,0,0,0.2,0.1,0.3l0.3,0.1l0.2,0l0.1,0
	c0.2-0.1,0.3-0.2,0.4-0.3l0-0.2l0-0.2l0-0.1l0.1-0.2l0-0.2l-0.2-0.2c-0.3-0.2-0.6-0.1-0.8,0L8.4,30.5L8.4,30.5z"/>
<path fill="#3F3B3C" d="M6.1,32.9l0,0.2l0.2,0.2c0.4,0.3,0.8,0.1,0.9,0l0.1,0l0.2-0.2l0.1-0.2l0-0.2c0-0.2-0.1-0.3-0.3-0.4
	c-0.2-0.1-0.4-0.2-0.6-0.1c-0.2,0.1-0.4,0.2-0.6,0.5L6.1,32.9z"/>
<path fill="#3F3B3C" d="M19.6,24.5l0.3,0l0.2-0.3L20,24c-0.1,0-0.2,0-0.3-0.1c-0.1,0-0.2-0.1-0.4-0.1L19.2,24c0,0.2,0.1,0.3,0.2,0.4
	C19.5,24.4,19.6,24.4,19.6,24.5z"/>
<path fill="#3F3B3C" d="M9.4,20.4c0.1,0,0.1,0,0.2-0.1l-0.1-0.2c0-0.1,0-0.2-0.1-0.2c0,0,0,0-0.1,0l-0.2,0C9,19.9,9,19.9,9,20
	C9,20.2,9.2,20.4,9.4,20.4z"/>
<path fill="#3F3B3C" d="M10.4,23.6c0.1,0.1,0.3,0.1,0.4,0.1c0.1-0.1,0.2-0.2,0.3-0.3l0-0.1L11,23.1L10.9,23l-0.2-0.1l-0.1,0l-0.2,0
	l-0.1,0c-0.1,0.1-0.2,0.2-0.2,0.3C10.2,23.3,10.3,23.5,10.4,23.6z"/>
<path fill="#3F3B3C" d="M14.5,32c0,0,0,0.1,0.1,0.2l0.1,0.1l0.3,0c0,0,0.1,0,0.2-0.1l0.1-0.1l0-0.3c0,0,0-0.1-0.1-0.2L15,31.5
	l-0.3,0c0,0-0.1,0-0.2,0.1l-0.1,0.1L14.5,32z"/>
<path fill="#3F3B3C" d="M14.7,34.1c0,0.1,0,0.1,0,0.2c0.1,0.1,0.1,0.1,0.2,0.1l0-0.1c0,0,0,0,0,0l0,0.1c0.2,0,0.3,0,0.3-0.1l-0.2,0
	c0,0,0,0,0,0c-0.1,0-0.1-0.1-0.2-0.1c0,0,0,0,0,0.1L14.7,34.1z"/>
<path fill="#3F3B3C" d="M3.1,25l0.2,0c0,0,0,0,0,0c0.1,0,0.1,0.1,0.2,0.1c0,0,0,0,0-0.1l0.2,0c0-0.1-0.1-0.3-0.2-0.3l0,0.2
	c0,0,0,0,0,0l0-0.2c-0.1,0-0.1,0-0.2,0C3.2,24.8,3.1,24.9,3.1,25z"/>
<path fill="#3F3B3C" d="M10.7,23.9c-0.1,0-0.2,0.1-0.2,0.2l0.1,0.2c0.1,0,0.4-0.1,0.5-0.2c0-0.1,0-0.2-0.1-0.2L10.7,23.9
	C10.7,23.9,10.7,23.9,10.7,23.9z"/>
<path fill="#3F3B3C" d="M5.3,30.7L5.3,30.7C5.2,30.8,5.1,30.9,5,31c0,0.1-0.1,0.3,0.2,0.5l0.1,0l0.3-0.1c0,0,0.1-0.1,0.2-0.2l0-0.1
	l0-0.1l-0.1-0.2l-0.1-0.1l-0.1,0l-0.1,0L5.3,30.7z"/>
<path fill="#3F3B3C" d="M5.5,26.6c0,0-0.1,0.1-0.1,0.2l0,0.1l0.1,0.3c0,0,0.1,0.2,0.3,0.2l0.1,0l0.2-0.1l0.1-0.1l0-0.2l0-0.1
	l-0.1-0.2L6,26.5l-0.1,0l-0.1,0L5.5,26.6z"/>
<path fill="#3F3B3C" d="M8.4,16.1C8.4,16.1,8.4,16.1,8.4,16.1c-0.1,0-0.3,0-0.3,0.1l0.1,0.2c0,0,0.1,0,0.1,0.1l0.2,0c0,0,0,0,0.1,0
	c0.1,0,0.1-0.1,0.1-0.2c0,0,0-0.2-0.1-0.2L8.4,16.1C8.4,16.1,8.4,16.1,8.4,16.1z"/>
<path fill="#3F3B3C" d="M6.6,36.4c0,0.1,0.1,0.1,0.2,0.1l0.2-0.1c0.1,0,0.2-0.1,0.2-0.2c0,0,0-0.1,0-0.1L7,36
	c-0.1-0.1-0.2-0.1-0.3,0C6.6,36,6.5,36.3,6.6,36.4z"/>
<path fill="#3F3B3C" d="M6.4,4.7c-0.1,0-0.1,0.1-0.1,0.1l0.2,0c0,0,0,0,0,0c0,0.1,0.2,0,0.2,0c0,0,0,0,0-0.1l0.2,0
	c0-0.1,0-0.2-0.1-0.2C6.6,4.6,6.5,4.7,6.4,4.7z"/>
<path fill="#3F3B3C" d="M12.5,35.1l0.2-0.1c0-0.1,0.1-0.1,0.1-0.2c0.1-0.1,0.1-0.1,0.1-0.2l-0.2-0.1c0,0-0.1,0-0.1,0
	c-0.1,0-0.2,0.1-0.3,0.2l0,0.2L12.5,35.1z"/>
<path fill="#3F3B3C" d="M9,25.1l0.3,0l0.2-0.3l-0.1-0.2c-0.1,0-0.2-0.1-0.3-0.1c-0.1,0-0.2-0.1-0.3-0.1l-0.2,0.1
	c0,0.2,0.1,0.3,0.2,0.4C8.9,25,9,25.1,9,25.1z"/>
<path fill="#3F3B3C" d="M3.6,32.5c0,0,0,0.1,0.1,0.2l0.1,0.1l0.3,0c0,0,0.1,0,0.2-0.1l0.1-0.1l0-0.3c0,0,0-0.1-0.1-0.2L4.2,32
	l-0.3,0c0,0-0.1,0-0.2,0.1l-0.1,0.1L3.6,32.5z"/>
<path fill="#3F3B3C" d="M3.9,36.1c0,0.1,0,0.1,0,0.2c0.1,0.1,0.1,0.1,0.2,0.1l0-0.1c0,0,0,0,0,0l0,0.1c0.2,0,0.3,0,0.3-0.1l-0.2,0
	c0,0,0,0,0,0c-0.1,0-0.1-0.1-0.2-0.1c0,0,0,0,0,0.1L3.9,36.1z"/>
</svg>
