<?xml version="1.0" encoding="utf-8"?>
<!-- Generator: Adobe Illustrator 22.0.1, SVG Export Plug-In . SVG Version: 6.00 Build 0)  -->
<svg version="1.1" id="Layer_1" xmlns="http://www.w3.org/2000/svg" xmlns:xlink="http://www.w3.org/1999/xlink" x="0px" y="0px"
	 width="17px" height="17px" viewBox="0 0 17 17" enable-background="new 0 0 17 17" xml:space="preserve">
<title>mountain-11.svg</title>
<rect fill="none" width="17" height="17"/>
<path fill="#ADADAD" stroke="#ADADAD" stroke-width="2" stroke-miterlimit="10" d="M8.5,4.2C8.3,4.2,8.1,4.3,8,4.5l-4,6.7
	c-0.2,0.4,0,0.8,0.5,0.8h8c0.4,0,0.7-0.5,0.5-0.8L9,4.5C8.9,4.3,8.7,4.2,8.5,4.2z M8.5,5.2l2.9,4.8h-0.7L9.4,8.8L8.5,10L7.6,8.8
	L6.3,10H5.6L8.5,5.2z"/>
<path fill="#8FC4E2" d="M8.5,4.2C8.3,4.2,8.1,4.3,8,4.5l-4,6.7c-0.2,0.4,0,0.8,0.5,0.8h8c0.4,0,0.7-0.5,0.5-0.8L9,4.5
	C8.9,4.3,8.7,4.2,8.5,4.2z M8.5,5.2l2.9,4.8h-0.7L9.4,8.8L8.5,10L7.6,8.8L6.3,10H5.6L8.5,5.2z"/>
</svg>
