<?xml version="1.0" encoding="utf-8"?>
<!-- Generator: Adobe Illustrator 22.0.1, SVG Export Plug-In . SVG Version: 6.00 Build 0)  -->
<svg version="1.1" id="Layer_1" xmlns="http://www.w3.org/2000/svg" xmlns:xlink="http://www.w3.org/1999/xlink" x="0px" y="0px"
	 width="21px" height="21px" viewBox="0 0 21 21" enable-background="new 0 0 21 21" xml:space="preserve">
<title>mountain-15.svg</title>
<rect fill="none" width="21" height="21"/>
<path fill="#ADADAD" stroke="#ADADAD" stroke-width="2" stroke-miterlimit="10" d="M10.5,5c-0.3,0-0.4,0.2-0.6,0.4l-5.8,9.5
	C4,15,4,15.2,4,15.3C4,15.8,4.4,16,4.7,16h11.6c0.4,0,0.7-0.2,0.7-0.7c0-0.2,0-0.2-0.1-0.4l-5.7-9.5C11,5.2,10.8,5,10.5,5z
	 M10.5,6.5l3.3,5.5H13l-1.5-1.5l-1,1.5l-1-1.5L8,12H7.1L10.5,6.5z"/>
<path fill="#8FC4E2" d="M10.5,5c-0.3,0-0.4,0.2-0.6,0.4l-5.8,9.5C4,15,4,15.2,4,15.3C4,15.8,4.4,16,4.7,16h11.6
	c0.4,0,0.7-0.2,0.7-0.7c0-0.2,0-0.2-0.1-0.4l-5.7-9.5C11,5.2,10.8,5,10.5,5z M10.5,6.5l3.3,5.5H13l-1.5-1.5l-1,1.5l-1-1.5L8,12H7.1
	L10.5,6.5z"/>
</svg>
