<?xml version="1.0" encoding="utf-8"?>
<!-- Generator: Adobe Illustrator 22.0.1, SVG Export Plug-In . SVG Version: 6.00 Build 0)  -->
<svg version="1.1" id="Layer_1" xmlns="http://www.w3.org/2000/svg" xmlns:xlink="http://www.w3.org/1999/xlink" x="0px" y="0px"
	 width="40px" height="40px" viewBox="0 0 40 40" enable-background="new 0 0 40 40" xml:space="preserve">
<path fill-rule="evenodd" clip-rule="evenodd" d="M27.5,6.2c0.4-0.1,0.3-0.9,0-1.1C27.4,5.3,27.3,6,27.5,6.2z M24.2,5.9
	c0.2-0.1,0.1-0.5,0-0.5C24.1,5.4,24,5.9,24.2,5.9z M36.2,0.8c0.1-0.1,0.1-0.5-0.1-0.5C36,0.6,36,0.8,36.2,0.8z M8.9,1.1
	c0.2,0,0.2-0.3,0.1-0.5c0,0-0.1,0-0.1,0C8.8,0.7,8.8,1,8.9,1.1z M16.7,1.4c0-0.1,0.1-0.4-0.1-0.3C16.7,1.2,16.5,1.3,16.7,1.4z
	 M9,1.9c0.1,0,0.1-0.3,0-0.3C8.9,1.5,8.8,1.9,9,1.9z M16.6,2c0.2,0.1,0.2-0.4,0-0.3C16.6,1.8,16.6,1.9,16.6,2z M34.2,2.6
	c0,0.2,0.1,0.3,0.3,0.4C35,2.4,34.2,1.8,34.2,2.6z M16.6,4.1c0.3-0.4,0.5-1.6,0-1.9C16.3,2.7,16.4,3.5,16.6,4.1z M27.3,7.6
	c0.1,0.2,0.2,0.5,0.4,0.6C28.1,7.9,27.5,6.7,27.3,7.6z M26.6,8.1C26.9,8,27,7.7,27.1,7.5C26.8,6.9,26.2,7.7,26.6,8.1z M33.6,2.6
	c0.1,0,0.2,0,0.2-0.2c-0.1,0-0.1,0-0.1,0C33.6,2.4,33.6,2.5,33.6,2.6z M36.2,3.3c0.2-0.2,0.4-0.9,0-0.9C35.9,2.5,35.9,3.1,36.2,3.3z
	 M18.3,3.7c0-0.4,0.1-0.7,0.1-1.2C18,2.6,18.1,3.5,18.3,3.7z M15.7,3.6c0.2-0.2,0.5-0.9,0-1C15.6,2.9,15.4,3.5,15.7,3.6z M17.6,3.2
	c0.1-0.2,0-0.3,0-0.5C17.2,2.7,17.3,3.3,17.6,3.2z M13.1,3.6c0.3-0.1,0.2-0.6,0-0.7C12.9,3.1,13,3.4,13.1,3.6z M14.9,3.8
	c0.2-0.1,0.2-0.6,0-0.7c0,0-0.1,0-0.1,0C14.7,3.3,14.7,3.8,14.9,3.8z M4.6,4c0.2-0.2,0.1-0.8-0.1-0.8C4.3,3.4,4.2,4,4.6,4z
	 M40.3,3.4 M6.3,4.2c0.2,0,0.1-0.2,0.1-0.4C6.3,3.8,6.3,4.1,6.3,4.2z M8.9,4.9C9,4.7,9.1,4.2,8.8,4.1C8.8,4.3,8.7,4.9,8.9,4.9z
	 M16.6,5.2c0.1,0.1,0.1-0.3,0-0.2C16.6,5,16.6,5.1,16.6,5.2z M34.5,5.5c0.1-0.1,0.1-0.6-0.1-0.6C34.3,5.1,34.2,5.5,34.5,5.5z
	 M32.8,5.4c0.1,0,0.1-0.1,0.1-0.2c0,0-0.1,0-0.1,0C32.8,5.3,32.8,5.3,32.8,5.4z M14.9,8.7c0.2-0.1,0.1-0.7,0-0.8
	C14.7,8.1,14.6,8.6,14.9,8.7z M6.4,11c0-1,0.3-2.1,0-3C6.4,9.1,5.7,10.2,6.4,11z M3.6,8.4c0.1,0.4,0,1.1,0.2,1.4c0.1,0,0.2,0,0.3,0
	c0.3,0.2,0.1,0.8,0.5,1c0.2-0.7,0.3-1.5,0-2.3C4.4,8.3,4.4,8.7,4.1,8.6C4,8.4,3.8,8.1,3.6,8.4z M5.3,9.6c0.2,0,0.2-0.3,0-0.3
	C5.3,9.4,5.3,9.5,5.3,9.6z M14.8,10c0.1,0.1,0.1-0.2,0-0.1C14.8,9.9,14.8,9.9,14.8,10z M5.4,10.7c0.2,0,0.2-0.1,0.2-0.3
	C5.4,10.3,5.4,10.5,5.4,10.7z M0.1,11.3c0.1-0.1,0.1-0.1,0-0.3c0,0-0.1,0-0.1,0C0.1,11.1,0,11.3,0.1,11.3z M6.3,13.6
	c0.3-0.3,0.4-1.5,0-1.7C6.1,12.3,6.3,13,6.3,13.6z M0.2,12.4c0-0.1,0-0.4-0.1-0.3C0,12.2,0,12.5,0.2,12.4z M10.6,12.7
	c0.2,0,0.2-0.5,0-0.5C10.6,12.4,10.6,12.5,10.6,12.7z M32.8,14.6c0.1-0.2,0.3-0.6,0.1-0.9C32.4,13.7,32.6,14.5,32.8,14.6z M9.8,13.9
	c0,0-0.1,0-0.1,0c-0.2,0.3-0.1,1.1,0.1,1.5C10,15.2,10,14.2,9.8,13.9z M6.3,15.5c0.2-0.4,0.4-1.3,0-1.6C6.1,14.4,6.2,15.1,6.3,15.5z
	 M8.9,14.4c0.1,0,0.2-0.5,0-0.4C8.8,14.2,8.7,14.4,8.9,14.4z M10.6,14.3c0.2,0.1,0.3-0.3,0.1-0.3C10.5,14,10.6,14.2,10.6,14.3z
	 M5.5,14.4c0.1-0.1,0.1-0.4-0.1-0.3C5.3,14.2,5.3,14.5,5.5,14.4z M12.3,14.5c0.2,0,0.2-0.1,0.2-0.2c-0.1,0-0.1-0.1-0.1,0
	C12.3,14.3,12.2,14.3,12.3,14.5z M0.1,14.7c0,0,0.1,0,0.1,0c0-0.1,0-0.2-0.1-0.2C0.1,14.6,0,14.6,0.1,14.7z M40,11.3
	c0.1-0.1,0.1-0.1,0-0.3c0,0-0.1,0-0.1,0C39.9,11.1,39.9,11.3,40,11.3z M40.1,12.4c0-0.1,0-0.4-0.1-0.3
	C39.9,12.2,39.9,12.5,40.1,12.4z M39.9,14.7c0,0,0.1,0,0.1,0c0-0.1,0-0.2-0.1-0.2C40,14.6,39.9,14.6,39.9,14.7z M25.1,16.2
	c0.2-0.3,0.3-1.2,0-1.5C25,15.2,24.7,15.9,25.1,16.2z M29.4,15.9c0.4,0,0.3-0.9,0-0.9C29.2,15.2,29.3,15.6,29.4,15.9z M28.5,15
	c-0.1,0.1-0.2,0.3-0.4,0.3c-0.2,0-0.2-0.3-0.4-0.2c0,0.2-0.2,1.2,0.1,1.3c0.1-0.3,0.1-0.6,0.3-0.8c0.1,0.3,0.2,0.6,0.5,0.8
	C28.8,16.2,28.8,15.3,28.5,15z M32.8,15.4c0.1,0,0.2-0.1,0.1-0.2c0,0-0.1,0-0.1,0C32.8,15.2,32.8,15.3,32.8,15.4z M30.3,16.3
	c0.1-0.2,0.2-0.9,0-1C30.1,15.5,29.9,16.1,30.3,16.3z M34.5,15.5c0.1,0,0.1,0,0.2,0c0-0.1,0-0.3-0.1-0.3
	C34.6,15.4,34.5,15.4,34.5,15.5z M26,16.2c0.1-0.1,0.1-0.6-0.1-0.7C25.8,15.6,25.7,16.1,26,16.2z M22.9,15.8c-0.2,0-0.2-0.2-0.5-0.2
	c-0.2,0.2-0.1,0.7,0,1c0.4-0.1,0.7,0,0.9,0.2c0.2-0.2,0.5-0.4,0.9-0.4c0.1-0.2,0.1-0.4,0-0.6C23.6,15.9,23.3,15.4,22.9,15.8z
	 M21.5,16.1c0.3,0.1,0.3-0.4,0.1-0.4C21.5,15.8,21.4,15.9,21.5,16.1z M32.9,16.5c0.1-0.1,0-0.4,0-0.5c0,0-0.1,0-0.1,0
	C32.7,16.2,32.6,16.5,32.9,16.5z M6.3,17.3c0.1-0.1,0.2-0.7-0.1-0.7C6.1,16.9,6.2,17.2,6.3,17.3z M21.6,18.9c0,0.3-0.2,0.8,0.1,1.1
	c0.2-0.7,0.4-2.1-0.1-2.7C21.2,17.9,21.5,18.5,21.6,18.9z M3.7,20.7c0.2,0,0.1-0.1,0.1-0.2C3.7,20.5,3.7,20.5,3.7,20.7z M18.2,21.2
	c0.2-0.1,0.3-0.3,0.1-0.5c0,0-0.1,0-0.1,0C18.2,20.8,18.2,21.1,18.2,21.2z M27.7,22.2c0.3,0,0.2-0.7,0-0.7
	C27.6,21.7,27.6,22,27.7,22.2z M28.8,22.1c0-0.1,0-0.2-0.1-0.2C28.5,22,28.6,22.2,28.8,22.1z M21.2,22.3c-0.2,0-0.2-0.1-0.4-0.1
	c-0.1,0.1-0.1,0.5,0.1,0.5c0.1,0.1,0.2-0.2,0.3-0.1c0.1,0.1,0.2,0.2,0.3,0.2C22,22.2,21.6,21.8,21.2,22.3z M6.3,22.4
	c0.1-0.1,0.2-0.3,0-0.3C6.2,22.2,6.1,22.4,6.3,22.4z M9.7,22.5c0.1-0.1,0.2-0.2,0.1-0.4c-0.1,0-0.1-0.1-0.2,0
	C9.6,22.2,9.5,22.5,9.7,22.5z M0.4,23.2c0.1-0.3,0.2-0.8,0-1.1c0,0-0.1,0-0.1,0C0.1,22.4,0.2,23.1,0.4,23.2z M10.6,22.3
	c0,0,0.1,0,0.1,0C10.7,22.2,10.6,22.2,10.6,22.3C10.6,22.2,10.6,22.2,10.6,22.3z M-0.6,22.4C-0.6,22.4-0.5,22.4-0.6,22.4
	c0.1,0,0.1-0.1,0.1-0.1c-0.1,0-0.1-0.1-0.1,0C-0.6,22.3-0.6,22.4-0.6,22.4z M6.3,23.7c0.1-0.1,0.1-0.3,0.1-0.5c-0.1,0-0.1-0.1-0.1,0
	C6.2,23.2,6.1,23.6,6.3,23.7z M0.4,24.4c0-0.2,0.2-0.6-0.1-0.7C0.1,23.9,0.2,24.4,0.4,24.4z M12.3,24.4c0.2,0,0.2-0.4,0.1-0.5
	c0,0,0-0.1-0.1,0C12.2,23.9,12.2,24.2,12.3,24.4z M37,24.6c0.3,0,0.3-0.5,0-0.6C36.9,24.1,36.9,24.5,37,24.6z M19.2,24.6
	c0.2-0.1,0.2-0.5-0.1-0.6C19,24.2,19,24.6,19.2,24.6z M36.3,24.8c0-0.2,0.1-0.5-0.1-0.5C36,24.4,36.1,24.8,36.3,24.8z M33.4,24.6
	c0.1,0.1,0.1,0.2,0.3,0.2c0.1-0.1,0.2-0.2,0.2-0.4C33.7,24.2,33.4,24.4,33.4,24.6z M39.5,24.7c0.1-0.1,0.2-0.2,0.1-0.3
	c-0.1,0-0.1,0-0.2,0C39.4,24.5,39.4,24.8,39.5,24.7z M0.3,25c0.1,0,0.1-0.1,0.1-0.2c0,0-0.1,0-0.1,0C0.3,24.8,0.3,24.9,0.3,25z
	 M12.3,26.8c0.5-0.2,0.2-1,0.1-1.3c0,0-0.1,0-0.1,0C12.2,26,12.1,26.5,12.3,26.8z M6.3,27.1c0.2-0.3,0.3-1.1,0-1.4
	C6.2,26.2,6,26.7,6.3,27.1z M20.9,25.9c0-0.1,0-0.2-0.1-0.2C20.7,25.7,20.7,25.9,20.9,25.9z M14.8,26.2c0.1-0.1,0.1-0.2,0.1-0.4
	c-0.1,0-0.1-0.1-0.1,0C14.7,25.9,14.6,26.2,14.8,26.2z M13.8,26.6c0.3,0,0.3-0.5,0.2-0.8c0,0-0.1,0-0.1,0
	C13.8,26.1,13.7,26.3,13.8,26.6z M5.4,26.9c0.2-0.1,0.3-0.5,0.1-0.6C5.1,26.2,5.2,26.8,5.4,26.9z M7.1,26.6c0.2,0,0.2-0.3,0-0.2
	C7.1,26.4,7.1,26.5,7.1,26.6z M10.5,26.8c0.2,0,0.2-0.3,0.1-0.5c-0.1,0-0.1-0.1-0.1,0C10.4,26.5,10.4,26.7,10.5,26.8z M36.3,27.8
	c0.1-0.1,0.2-0.4,0.1-0.5C36.1,27.3,36,27.8,36.3,27.8z M20.9,27.9c0-0.1,0.1-0.4-0.1-0.3C20.7,27.7,20.7,27.9,20.9,27.9z
	 M36.2,29.2c0.1-0.2,0.2-0.5,0.1-0.8C35.9,28.4,35.9,29.1,36.2,29.2z M13.1,30.8c0.1-0.4,0.3-1,0-1.3C12.9,29.8,12.9,30.5,13.1,30.8
	z M14.8,30.2c0.1-0.1,0.2-0.6-0.1-0.6C14.6,29.8,14.5,30.1,14.8,30.2z M23.3,29.9c0-0.1,0-0.2,0-0.4C23.1,29.5,23.1,29.9,23.3,29.9z
	 M0.1,30.3c0.4,0.1,0.4-0.6,0.1-0.6C0.1,29.8,0,30.1,0.1,30.3z M1.2,30.4c0.1-0.2,0-0.5,0-0.7c0,0-0.1,0-0.1,0
	C1,29.9,0.9,30.5,1.2,30.4z M13.8,29.7c-0.1,0.2-0.2,0.6,0.1,0.6C14,30.3,14.2,29.7,13.8,29.7z M15.7,30.1c0-0.1,0.1-0.3,0-0.3
	C15.6,29.8,15.5,30.1,15.7,30.1z M36.3,30.4c0-0.1,0.1-0.3,0-0.4c0,0-0.1,0-0.1,0C36,30.1,36,30.3,36.3,30.4z M12.2,30.3
	c0.1,0,0.3-0.3,0.1-0.3C12.2,30.1,12.2,30.2,12.2,30.3z M1.1,33.7c0.2-0.2,0.2-1,0-1.1C1,32.9,0.8,33.5,1.1,33.7z M14.8,33.8
	c0.1-0.2,0.2-0.5-0.1-0.6C14.6,33.3,14.6,33.8,14.8,33.8z M8.8,34.3c0.2,0,0.2-0.5,0-0.5C8.7,33.9,8.7,34.1,8.8,34.3z M3.5,34.1
	c0.2,0,0.2-0.1,0.2-0.2c-0.1,0-0.1-0.1-0.1,0C3.6,33.9,3.5,34,3.5,34.1z M26,35.6c0.2-0.6,0-1.2,0-1.8c0,0-0.1,0-0.1,0
	C26,34.4,25.5,35.3,26,35.6z M32.9,34.4c-0.1,0.1-0.2,0.6,0.1,0.6C33.2,34.9,33.2,34.4,32.9,34.4z M35.3,35.6
	c0.2-0.2,0.1-0.5,0.1-0.8c0,0-0.1,0-0.1,0C35.3,35.1,35.3,35.5,35.3,35.6z M38.7,35.3c0.2,0,0.2-0.3,0.1-0.5c0,0-0.1,0-0.1,0
	C38.6,34.9,38.7,35.2,38.7,35.3z M-0.1,35.6c0.3,0.1,0.3-0.5,0-0.5C0,35.3-0.2,35.4-0.1,35.6z M39.9,35.6c0.3,0.1,0.3-0.5,0-0.5
	C40,35.3,39.8,35.4,39.9,35.6z M21.5,36c0.2,0.1,0.3-0.4,0-0.4C21.4,35.7,21.3,35.8,21.5,36z M22.1,36.8c0.4,0.4,0,1.7,0.1,2.2
	c0,0.1,0.3,0.3,0.3,0.3c0.4-0.1,0-1,0-1.1c0-0.2,0.1-0.4,0.1-0.6c0-0.5-0.1-1.5-0.2-1.8C22.3,36.1,22.2,36.5,22.1,36.8z M26,39.2
	c0.1-0.4,0-1,0.4-1c0.2,0,0.2,0.2,0.4,0.3c0.1-0.3,0.1-0.6,0-0.9c-0.9,0.1-0.7-0.7-0.7-1.3c0,0,0-0.1-0.1,0
	C25.7,37.1,25.6,38.5,26,39.2z M1.1,36.9c0-0.1,0-0.1,0-0.2c0,0-0.1,0-0.1,0C1,36.8,1,36.9,1.1,36.9z M27.7,39.9c0.1-1,0.4-2.2,0-3
	C27.4,37.7,27.4,39.1,27.7,39.9z M17.3,37.4c0.2,0,0.2-0.3,0-0.3C17.3,37.2,17.3,37.3,17.3,37.4z M24.1,37.8c0.2,0.1,0.2-0.5,0-0.4
	C24.1,37.4,24.1,37.7,24.1,37.8z M15.7,38c0-0.1,0.1-0.5,0-0.5C15.6,37.7,15.6,38,15.7,38z M13.8,37.7C13.4,38.5,14.5,38,13.8,37.7
	L13.8,37.7z M13,37.8c-0.2,0.2-0.2,0.6-0.4,0.8c-0.1,0.1-0.3-0.1-0.4,0c-0.1,0.2-0.2,0.4,0,0.6c0.4-0.2,0.5,0,0.8,0.1
	c0.2-0.1,0.3-0.3,0.4-0.5C13.1,38.6,13.6,37.8,13,37.8z M14.7,38.2c0.1-0.1,0.1-0.5-0.1-0.5C14.5,37.8,14.5,38.2,14.7,38.2z
	 M15.7,39c0.2-0.1,0.2-0.5,0-0.5C15.5,38.5,15.4,38.9,15.7,39z M27.5,41c0.2-0.1,0.2-0.5,0-0.5C27.3,40.6,27.2,41,27.5,41z
	 M31.3,39.5c0.1-0.3,0.2-0.9-0.2-1C31,38.7,31,39.3,31.3,39.5z M1.9,39c0.1-0.1,0.2-0.5-0.1-0.5C1.7,38.7,1.7,39,1.9,39z M13.5,38.9
	c0.1,0.3,0.7,0.4,0.7-0.1C14,38.5,13.7,38.5,13.5,38.9z M6.3,39.2c0.2-0.1,0.2-0.6-0.1-0.6C6.1,38.8,5.9,39.2,6.3,39.2z M14.7,39.1
	C15.4,38.3,13.9,38.8,14.7,39.1L14.7,39.1z M32.1,39.7c0.3-0.2,0.2-0.7,0.1-1.1c-0.1,0-0.1-0.1-0.2,0C31.7,38.9,31.8,39.5,32.1,39.7
	z M3.7,39.1c0.1-0.1,0.1-0.4-0.1-0.3C3.5,38.9,3.5,39.2,3.7,39.1z M35.5,39.6c0.2-0.2,0.3-0.8-0.1-0.8
	C35.3,39.1,35.2,39.5,35.5,39.6z M26.8,39.6c0.1-0.1,0.2-0.5,0-0.5C26.7,39.2,26.6,39.6,26.8,39.6z M17.3,39.9
	c0.2,0,0.2-0.1,0.2-0.3c-0.1,0-0.1-0.1-0.1,0C17.3,39.6,17.3,39.7,17.3,39.9z M31.2,40.4c0.3-0.1,0.1-0.7,0-0.8
	C31.1,39.8,30.9,40.4,31.2,40.4z M31.2,0.4c0.3-0.1,0.1-0.7,0-0.8C31.1-0.2,30.9,0.4,31.2,0.4z M25.9,40.4c0.2,0.1,0.3-0.4,0-0.4
	C25.8,40.1,25.9,40.3,25.9,40.4z M23.2,40.6c0.1,0,0.1,0,0.2,0c0.1-0.1,0.1-0.2,0-0.3C23.3,40.2,23.1,40.4,23.2,40.6z M18,40.6
	c0.1,0,0.1,0.1,0.2,0c0-0.1,0-0.1,0-0.2C18.1,40.4,18.1,40.5,18,40.6z"/>
</svg>
